<svg width="19" height="19" viewBox="0 0 19 19" fill="none" xmlns="http://www.w3.org/2000/svg">
<path fill-rule="evenodd" clip-rule="evenodd" d="M9.16181 5.67623L5.97358 1.52693C5.97358 1.52693 4.80321 0.356562 3.84571 1.8461C3.84571 1.8461 3.81129 8.01751 3.73928 10.7299C3.70677 11.9538 4.69677 12.7906 4.69677 12.7906L9.16181 17.9649" fill="#F2DB13"/>
<path fill-rule="evenodd" clip-rule="evenodd" d="M9.60787 5.33387L6.41963 1.18443C6.40468 1.16509 6.38864 1.14671 6.37136 1.12943C6.37136 1.12943 5.5484 0.337344 4.59214 0.574627C4.19932 0.672009 3.76412 0.93316 3.37254 1.54214C3.31479 1.63198 3.28379 1.73649 3.28325 1.8432C3.28325 1.8432 3.24895 8.00639 3.17694 10.7154C3.14197 12.0362 4.08301 12.9881 4.29273 13.1834C4.29231 13.183 8.73596 18.3326 8.73596 18.3326C8.93881 18.5677 9.29432 18.5937 9.52928 18.3909C9.76436 18.1882 9.79056 17.8327 9.5877 17.5976L5.12267 12.4234C5.10347 12.4011 5.08248 12.3804 5.05999 12.3613C5.05999 12.3613 4.27613 11.7066 4.30164 10.7452C4.36652 8.29867 4.40094 3.0421 4.40711 2.02274C4.55949 1.81878 4.709 1.70467 4.86303 1.66654C5.18645 1.5863 5.46474 1.81796 5.54936 1.89847C5.54977 1.89875 8.71579 6.01924 8.71579 6.01924C8.90493 6.26544 9.25839 6.3118 9.50459 6.12252C9.75079 5.93338 9.79701 5.58006 9.60787 5.33387Z" fill="black"/>
<path fill-rule="evenodd" clip-rule="evenodd" d="M9.16226 5.67623L12.3505 1.52693C12.3505 1.52693 13.5209 0.356562 14.4784 1.8461C14.4784 1.8461 14.5128 8.01751 14.5848 10.7299C14.6173 11.9538 13.6273 12.7906 13.6273 12.7906L9.16226 17.9649" fill="#03A081"/>
<path fill-rule="evenodd" clip-rule="evenodd" d="M9.60837 6.01924L12.7744 1.89875C12.86 1.81755 13.138 1.5863 13.4611 1.66654C13.6152 1.70467 13.7647 1.81879 13.9169 2.0226C13.9232 3.0421 13.9576 8.29867 14.0225 10.7452C14.048 11.7066 13.2642 12.3613 13.2642 12.3613C13.2417 12.3804 13.2207 12.4011 13.2015 12.4234L8.73646 17.5976C8.5336 17.8327 8.55979 18.1882 8.79488 18.3909C9.02983 18.5937 9.38535 18.5677 9.5882 18.3326L14.0318 13.183C14.2403 12.9888 15.1822 12.0368 15.1472 10.7154C15.0752 8.00639 15.0409 1.8432 15.0409 1.8432C15.0404 1.73649 15.0094 1.63198 14.9516 1.54214C14.56 0.93316 14.1248 0.672009 13.732 0.574627C12.7758 0.337344 11.9528 1.12943 11.9528 1.12943C11.9355 1.14671 11.9195 1.16509 11.9045 1.18443L8.71629 5.33387C8.52715 5.58006 8.57337 5.93338 8.81957 6.12252C9.06577 6.3118 9.41923 6.26544 9.60837 6.01924Z" fill="black"/>
</svg>
