<svg width="23" height="23" viewBox="0 0 23 23" fill="none" xmlns="http://www.w3.org/2000/svg">
<rect width="23" height="23" rx="11.5" fill="#0EA895"/>
<path d="M7.65224 15.9857C7.25573 16.1261 6.87359 15.744 7.01401 15.3475L9.27614 8.95999C9.39886 8.61344 9.84105 8.51339 10.101 8.77335L14.2264 12.8987C14.4863 13.1587 14.3863 13.6008 14.0397 13.7236L7.65224 15.9857Z" fill="white" stroke="white"/>
<path d="M11.969 5.21362L11.0109 7.22157" stroke="white" stroke-linecap="round"/>
<path d="M17.6316 10.876L15.6236 11.8341" stroke="white" stroke-linecap="round"/>
<path d="M16.1763 9.42139L14.1683 10.3795" stroke="white" stroke-linecap="round"/>
<path d="M13.7206 6.75775C13.8052 6.7861 13.8939 6.80017 13.9831 6.79933C13.9823 6.88851 13.9963 6.97729 14.0247 7.06185C13.9396 7.08861 13.8595 7.12942 13.7879 7.18252C13.7361 7.10988 13.6726 7.04631 13.5999 6.99457C13.653 6.92292 13.6938 6.84282 13.7206 6.75775Z" fill="#333333" stroke="white"/>
<path d="M16.6871 7.49945C16.7717 7.5278 16.8605 7.54187 16.9497 7.54103C16.9488 7.63021 16.9629 7.71899 16.9913 7.80355C16.9062 7.83031 16.8261 7.87112 16.7544 7.92422C16.7027 7.85158 16.6391 7.78801 16.5665 7.73627C16.6196 7.66462 16.6604 7.58452 16.6871 7.49945Z" fill="#333333" stroke="white"/>
</svg>
