<svg width="21" height="21" viewBox="0 0 21 21" fill="none" xmlns="http://www.w3.org/2000/svg">
<mask id="mask0_2216_16336" style="mask-type:luminance" maskUnits="userSpaceOnUse" x="0" y="0" width="21" height="21">
<path d="M20.6455 0.279305H0.645508V20.2793H20.6455V0.279305Z" fill="white"/>
</mask>
<g mask="url(#mask0_2216_16336)">
<path fill-rule="evenodd" clip-rule="evenodd" d="M18.3005 18.3038C18.3005 17.9587 18.0208 17.6788 17.6755 17.6788H3.61303C3.26772 17.6788 2.98803 17.9587 2.98803 18.3038V19.4831C2.98803 19.8282 3.26772 20.1081 3.61303 20.1081H17.6755C18.0208 20.1081 18.3005 19.8282 18.3005 19.4831V18.3038ZM9.4927 2.89708C9.23801 2.61896 9.08176 2.24833 9.08176 1.84177C9.08176 0.979424 9.78176 0.279265 10.6443 0.279265C11.5068 0.279265 12.2068 0.979424 12.2068 1.84177C12.2068 2.24833 12.0505 2.61896 11.7958 2.89708L15.3395 9.93898L17.6458 7.26272C17.5645 7.07335 17.5192 6.86491 17.5192 6.646C17.5192 5.78365 18.2192 5.0835 19.0817 5.0835C19.9442 5.0835 20.6442 5.78365 20.6442 6.646C20.6442 7.35881 20.1661 7.96085 19.513 8.14819L18.4817 16.4206C18.4427 16.7334 18.177 16.9682 17.8614 16.9682H3.42708C3.11146 16.9682 2.84584 16.7334 2.80677 16.4206L1.77553 8.14819C1.12241 7.96085 0.644287 7.35881 0.644287 6.646C0.644287 5.78365 1.34428 5.0835 2.20678 5.0835C3.06928 5.0835 3.76928 5.78365 3.76928 6.646C3.76928 6.86491 3.72396 7.07335 3.64271 7.26272L5.94895 9.93898L9.4927 2.89708ZM10.6443 9.88117L12.8099 11.1312V13.6312L10.6443 14.8812L8.47864 13.6312V11.1312L10.6443 9.88117Z" fill="#F0D700"/>
</g>
</svg>
