<svg width="20" height="21" viewBox="0 0 20 21" fill="none" xmlns="http://www.w3.org/2000/svg">
<path d="M8.99204 3.71533H5.867V6.84038H8.99204V3.71533Z" stroke="#0EA895" stroke-width="1.28271" stroke-miterlimit="1.5" stroke-linecap="round" stroke-linejoin="round"/>
<path d="M8.99186 9.34033H5.86682V12.4654H8.99186V9.34033Z" stroke="#0EA895" stroke-width="1.28271" stroke-miterlimit="1.5" stroke-linecap="round" stroke-linejoin="round"/>
<path d="M8.99186 14.9656H5.86682V18.0906H8.99186V14.9656Z" stroke="#0EA895" stroke-width="1.28271" stroke-miterlimit="1.5" stroke-linecap="round" stroke-linejoin="round"/>
<path d="M11.2603 10.5966L13.1391 13.7217L18.7767 8.08398" stroke="white" stroke-width="1.30493" stroke-miterlimit="1.5" stroke-linecap="round" stroke-linejoin="round"/>
<path fill-rule="evenodd" clip-rule="evenodd" d="M10.7246 10.9186L12.6032 14.0437C12.7024 14.2085 12.8719 14.3185 13.0628 14.3419C13.2538 14.3654 13.4449 14.2996 13.5808 14.1635L19.2186 8.52582C19.4625 8.28192 19.4625 7.88582 19.2186 7.64191C18.9747 7.39801 18.5786 7.39801 18.3347 7.64191L13.2625 12.7141L11.7958 10.2746C11.6182 9.97895 11.2338 9.88317 10.9382 10.061C10.6425 10.2386 10.5469 10.623 10.7246 10.9186Z" fill="#0EA895"/>
<path fill-rule="evenodd" clip-rule="evenodd" d="M17.4997 11.1286L16.2497 12.3786V19.5904C16.2497 19.6249 16.2217 19.6529 16.1872 19.6529H3.81225C3.77772 19.6529 3.74975 19.6249 3.74975 19.5904V2.21533C3.74975 2.1808 3.77772 2.15284 3.81225 2.15284H11.4199V6.26535C11.4199 6.6105 11.6997 6.89035 12.0449 6.89035H16.2497V8.84316L17.4997 7.59316V6.348C17.4997 6.18597 17.4369 6.03035 17.3244 5.91378L12.6702 1.09377C12.5525 0.971738 12.3902 0.902832 12.2207 0.902832H3.81225C3.08788 0.902832 2.49976 1.49096 2.49976 2.21533V19.5904C2.49976 20.3148 3.08788 20.9029 3.81225 20.9029H16.1872C16.9116 20.9029 17.4997 20.3148 17.4997 19.5904V11.1286ZM12.6699 5.64035H15.3227L12.6699 2.89299V5.64035Z" fill="#0EA895"/>
</svg>
