<svg width="20" height="21" viewBox="0 0 20 21" fill="none" xmlns="http://www.w3.org/2000/svg">
<path fill-rule="evenodd" clip-rule="evenodd" d="M0.624981 17.46C0.624981 17.46 6.29513 17.4406 9.61753 20.3843C9.85408 20.594 10.2098 20.594 10.4464 20.3843C13.7679 17.4414 19.3744 17.46 19.3744 17.46C19.7194 17.46 19.9994 17.1798 19.9994 16.835C19.9994 16.49 19.7194 16.21 19.3744 16.21C19.3744 16.21 13.6979 16.227 10.0319 19.1034C6.36215 16.228 0.624981 16.21 0.624981 16.21C0.279992 16.21 0 16.49 0 16.835C0 17.1798 0.279992 17.46 0.624981 17.46ZM9.96751 2.60876C9.66971 2.3958 9.2266 2.14503 8.57849 1.90331C7.21244 1.39364 4.80236 0.878806 0.621233 0.903962C0.277494 0.905993 0 1.18521 0 1.52895V14.8825C0 15.2213 0.269991 15.4985 0.608731 15.5072C0.608731 15.5072 5.8356 15.6338 9.46034 17.7343C9.50752 17.7895 9.56456 17.8368 9.62987 17.8734C9.73455 17.9321 9.85174 17.9582 9.96751 17.9523C10.0833 17.9582 10.2005 17.9321 10.3052 17.8734C10.3705 17.8368 10.4277 17.7895 10.4747 17.7343C14.0996 15.6338 19.3264 15.5072 19.3264 15.5072C19.665 15.4985 19.935 15.2213 19.935 14.8825V1.52895C19.935 1.18521 19.6575 0.905993 19.3138 0.903962C15.1327 0.878806 12.7227 1.39364 11.3565 1.90331C10.7084 2.14503 10.2655 2.3958 9.96751 2.60876ZM9.31035 3.68874V16.2412C6.32262 14.7882 2.67289 14.3938 1.24996 14.2916V2.15424C4.81657 2.17987 6.92151 2.61923 8.14163 3.07438C8.74301 3.29875 9.11473 3.53859 9.31035 3.68874ZM10.6247 16.2412V3.68874C10.8205 3.53859 11.192 3.29875 11.7934 3.07438C13.0135 2.61923 15.1185 2.17987 18.6851 2.15424V14.2916C17.2623 14.3938 13.6124 14.7882 10.6247 16.2412ZM2.99272 11.4904C2.99272 11.4904 5.07906 11.3509 7.42508 12.3785C7.74101 12.517 8.10991 12.3729 8.24835 12.0568C8.38678 11.7409 8.24256 11.372 7.92664 11.2337C5.27047 10.07 2.90491 10.2436 2.90491 10.2436C2.56086 10.2676 2.30118 10.5667 2.3254 10.9108C2.34962 11.255 2.64851 11.5146 2.99272 11.4904ZM17.0945 10.2436C17.0945 10.2436 14.7289 10.07 12.0728 11.2337C11.7568 11.372 11.6126 11.7409 11.751 12.0568C11.8895 12.3729 12.2584 12.517 12.5743 12.3785C14.9203 11.3509 17.0067 11.4904 17.0067 11.4904C17.3509 11.5146 17.6498 11.255 17.674 10.9108C17.6982 10.5667 17.4385 10.2676 17.0945 10.2436ZM2.99272 8.3655C2.99272 8.3655 5.07906 8.22597 7.42508 9.2536C7.74101 9.39204 8.10991 9.24798 8.24835 8.93189C8.38678 8.61596 8.24256 8.24706 7.92664 8.10879C5.27047 6.94507 2.90491 7.11865 2.90491 7.11865C2.56086 7.14272 2.30118 7.44177 2.3254 7.78583C2.34962 8.13004 2.64851 8.38972 2.99272 8.3655ZM17.0945 7.11865C17.0945 7.11865 14.7289 6.94507 12.0728 8.10879C11.7568 8.24706 11.6126 8.61596 11.751 8.93189C11.8895 9.24798 12.2584 9.39204 12.5743 9.2536C14.9203 8.22597 17.0067 8.3655 17.0067 8.3655C17.3509 8.38972 17.6498 8.13004 17.674 7.78583C17.6982 7.44177 17.4385 7.14272 17.0945 7.11865ZM2.99272 5.24058C2.99272 5.24058 5.07906 5.10105 7.42508 6.12868C7.74101 6.26711 8.10991 6.12305 8.24835 5.80697C8.38678 5.49104 8.24256 5.12214 7.92664 4.98386C5.27047 3.82014 2.90491 3.99373 2.90491 3.99373C2.56086 4.01779 2.30118 4.31685 2.3254 4.6609C2.34962 5.00511 2.64851 5.26479 2.99272 5.24058ZM17.0945 3.99373C17.0945 3.99373 14.7289 3.82014 12.0728 4.98386C11.7568 5.12214 11.6126 5.49104 11.751 5.80697C11.8895 6.12305 12.2584 6.26711 12.5743 6.12868C14.9203 5.10105 17.0067 5.24058 17.0067 5.24058C17.3509 5.26479 17.6498 5.00511 17.674 4.6609C17.6982 4.31685 17.4385 4.01779 17.0945 3.99373Z" fill="#0EA895"/>
</svg>
