<svg width="27" height="18" viewBox="0 0 27 18" fill="none" xmlns="http://www.w3.org/2000/svg">
<path fill-rule="evenodd" clip-rule="evenodd" d="M3.90771 6.46875V10.7149C3.90771 11.5173 4.55424 12.1642 5.34427 12.1642H6.95206C7.74229 12.1642 8.38883 11.5173 8.38883 10.7149V6.46875C8.38883 6.11968 8.10525 5.83594 7.75596 5.83594C7.40687 5.83594 7.1233 6.11968 7.1233 6.46875V10.7149C7.1233 10.8135 7.04934 10.8986 6.95206 10.8986H5.34427C5.2472 10.8986 5.17325 10.8135 5.17325 10.7149V6.46875C5.17325 6.11968 4.88967 5.83594 4.54038 5.83594C4.19129 5.83594 3.90771 6.11968 3.90771 6.46875Z" fill="white"/>
<path d="M10.1587 8.60552C10.1587 9.05604 10.519 9.42205 10.9626 9.42205H12.5704C13.0141 9.42205 13.3743 9.05604 13.3743 8.60552V7.2854C13.3743 6.83468 13.0141 6.46887 12.5704 6.46887H10.9626C10.519 6.46887 10.1587 6.83468 10.1587 7.2854V11.5313" stroke="white" stroke-width="1.19041" stroke-miterlimit="1.5" stroke-linecap="round" stroke-linejoin="round"/>
<path fill-rule="evenodd" clip-rule="evenodd" d="M18.6702 8.45156L15.658 11.4652C15.3269 11.7945 15.3269 12.3292 15.658 12.6585C15.9871 12.9878 16.5208 12.9878 16.8498 12.6585L19.8641 9.64483L21.4926 11.2739C21.6529 11.4344 21.8891 11.4967 22.1064 11.437C22.3258 11.3773 22.4966 11.2047 22.5536 10.9849L24.1082 4.97909C24.163 4.76225 24.1019 4.53169 23.9437 4.37307C23.7833 4.21465 23.5534 4.15179 23.3362 4.2079L17.3308 5.76231C17.1114 5.81926 16.9384 5.98949 16.8794 6.20865C16.8182 6.4276 16.8815 6.66196 17.0418 6.82248L18.6702 8.45156Z" fill="white"/>
<path fill-rule="evenodd" clip-rule="evenodd" d="M27.0005 2.51988C27.0005 1.62565 26.2746 0.900017 25.3795 0.900017H1.621C0.725865 0.900017 0 1.62565 0 2.51988V15.4798C0 16.374 0.725865 17.1 1.621 17.1H25.3795C26.2746 17.1 27.0005 16.374 27.0005 15.4798V2.51988ZM25.7343 2.51988V15.4798C25.7343 15.6756 25.5748 15.8342 25.3795 15.8342H1.621C1.4257 15.8342 1.26621 15.6756 1.26621 15.4798V2.51988C1.26621 2.32437 1.4257 2.1655 1.621 2.1655H25.3795C25.5748 2.1655 25.7343 2.32437 25.7343 2.51988Z" fill="white"/>
</svg>
