<?xml version="1.0" encoding="UTF-8" standalone="no"?>
<!DOCTYPE svg PUBLIC "-//W3C//DTD SVG 1.1//EN" "http://www.w3.org/Graphics/SVG/1.1/DTD/svg11.dtd">
<svg width="100%" height="100%" viewBox="0 0 128 128" version="1.1" xmlns="http://www.w3.org/2000/svg" xmlns:xlink="http://www.w3.org/1999/xlink" xml:space="preserve" xmlns:serif="http://www.serif.com/" style="fill-rule:evenodd;clip-rule:evenodd;stroke-linejoin:round;stroke-miterlimit:2;">
    <g transform="matrix(1,0,0,1,-1246,0)">
        <g id="_008" serif:id="008" transform="matrix(0.955152,0,0,0.872526,1190.48,-61.1211)">
            <rect x="58.122" y="70.051" width="134.01" height="146.7" style="fill:none;"/>
            <clipPath id="_clip1">
                <rect x="58.122" y="70.051" width="134.01" height="146.7"/>
            </clipPath>
            <g clip-path="url(#_clip1)">
                <g transform="matrix(1.04695,0,0,1.10912,-274.331,255.942)">
                    <path d="M370.542,-95.268L378.542,-95.268C381.937,-95.268 384.807,-97.41 385.976,-100.402C386.314,-101.055 386.536,-102 386.541,-103.356L386.542,-103.401L386.542,-103.401L386.542,-103.408L386.542,-109.868C386.542,-114.319 382.993,-118.002 378.542,-118.002L370.542,-118.002C366.091,-118.002 362.542,-114.319 362.542,-109.868C362.542,-109.868 362.542,-89.068 362.542,-89.068C362.542,-86.787 364.335,-84.935 366.542,-84.935C368.75,-84.935 370.542,-86.787 370.542,-89.068L370.542,-95.268ZM370.542,-103.535L370.542,-103.401C370.542,-103.453 370.594,-103.535 370.542,-103.535ZM378.542,-103.535C378.542,-103.535 378.491,-109.735 378.542,-109.735L370.542,-109.735L370.542,-103.535L378.542,-103.535Z" style="fill:rgb(18,183,163);"/>
                </g>
                <g transform="matrix(1.04695,0,0,1.16401,-1246.38,69.5923)">
                    <path d="M1334.51,61.4L1320.23,75.687C1318.66,77.248 1318.66,79.783 1320.23,81.344C1321.79,82.905 1324.32,82.905 1325.88,81.344L1340.17,67.057L1347.89,74.78C1348.65,75.541 1349.77,75.836 1350.8,75.553C1351.84,75.27 1352.65,74.452 1352.92,73.41L1360.29,44.938C1360.55,43.91 1360.26,42.817 1359.51,42.065C1358.75,41.314 1357.66,41.016 1356.63,41.282L1328.16,48.651C1327.12,48.921 1326.3,49.728 1326.02,50.767C1325.73,51.805 1326.03,52.916 1326.79,53.677L1334.51,61.4Z" style="fill:rgb(18,183,163);"/>
                </g>
                <g transform="matrix(0.98152,0,0,0.909214,-1160.66,85.2356)">
                    <path d="M1378.27,18.594C1378.27,15.809 1376.36,13.552 1374,13.552L1246,13.552C1243.64,13.552 1241.73,15.809 1241.73,18.594L1241.73,109.353C1241.73,112.137 1243.64,114.395 1246,114.395L1374,114.395C1376.36,114.395 1378.27,112.137 1378.27,109.353L1378.27,18.594ZM1369.73,23.636L1369.73,104.311C1369.73,104.311 1250.27,104.311 1250.27,104.311C1250.27,104.311 1250.27,23.636 1250.27,23.636L1369.73,23.636Z" style="fill:rgb(18,183,163);"/>
                </g>
                <g transform="matrix(1.04695,0,0,1.1461,-1276.53,69.578)">
                    <path d="M1290.16,52.413L1290.16,76.412C1290.16,78.622 1291.95,80.413 1294.16,80.412L1310.16,80.412C1312.37,80.413 1314.16,78.622 1314.16,76.412L1314.16,52.412C1314.16,50.205 1312.37,48.413 1310.16,48.412C1307.95,48.412 1306.16,50.205 1306.16,52.412L1306.16,72.412C1306.16,72.412 1298.16,72.412 1298.16,72.412C1298.16,72.412 1298.16,52.412 1298.16,52.412C1298.16,50.205 1296.37,48.412 1294.16,48.412C1291.95,48.413 1290.16,50.205 1290.16,52.413Z" style="fill:rgb(18,183,163);"/>
                </g>
            </g>
        </g>
    </g>
</svg>
