<?xml version="1.0" encoding="UTF-8" standalone="no"?>
<!DOCTYPE svg PUBLIC "-//W3C//DTD SVG 1.1//EN" "http://www.w3.org/Graphics/SVG/1.1/DTD/svg11.dtd">
<svg width="100%" height="100%" viewBox="0 0 180 180" version="1.1" xmlns="http://www.w3.org/2000/svg" xmlns:xlink="http://www.w3.org/1999/xlink" xml:space="preserve" xmlns:serif="http://www.serif.com/" style="fill-rule:evenodd;clip-rule:evenodd;stroke-linejoin:round;stroke-miterlimit:2;">
    <g transform="matrix(1,0,0,1,-225.192,-262.036)">
        <g id="アートボード4" transform="matrix(1.265,0,0,1.2511,165.192,280.992)">
            <rect x="47.431" y="-15.152" width="142.292" height="143.874" style="fill:none;"/>
            <g transform="matrix(0.790514,0,0,0.986367,-135.601,-23.3347)">
                <rect x="280.833" y="35.393" width="78.236" height="99.381" style="fill:white;"/>
            </g>
            <g transform="matrix(0.790514,0,0,0.799297,47.4308,-224.596)">
                <path d="M19.045,393.14C12.023,381.054 8,367.011 8,352.036C8,306.779 44.743,270.036 90,270.036C135.257,270.036 172,306.779 172,352.036C172,397.293 135.257,434.036 90,434.036C76.844,434.036 64.407,430.931 53.38,425.412L11.456,433.969C10.509,434.162 9.51,433.927 8.82,433.349C8.13,432.77 7.849,431.932 8.079,431.136L19.045,393.14ZM94.889,383.383C92.443,381.209 89.046,379.986 85.513,379.986C81.844,379.986 78.447,381.209 76.001,383.383C73.419,385.692 72.06,388.682 72.06,392.079C72.06,395.34 73.419,398.329 76.001,400.639C78.447,402.949 81.844,404.036 85.513,404.036C89.046,404.036 92.443,402.949 94.889,400.639C97.471,398.329 98.966,395.34 98.966,392.079C98.966,388.682 97.471,385.692 94.889,383.383ZM118.819,316.472C117.325,313.212 115.151,310.088 112.434,307.643C109.716,305.333 106.184,303.432 102.516,301.937C98.694,300.715 94.481,300.036 89.861,300.036C80.214,300.036 72.06,303.16 66.486,309.001C64.038,311.446 61.999,314.435 60.775,317.831C59.415,320.959 58.871,324.359 58.871,327.759L58.871,328.844L78.583,328.844L78.583,327.757C78.583,324.223 81.029,317.831 89.861,317.831C92.987,317.831 100.206,318.919 100.206,327.759C100.206,330.615 98.422,333.471 94.753,336.464C91.764,338.912 87.959,341.088 85.377,342.312C80.757,344.76 78.311,347.48 77.088,351.696C75.729,355.777 75.593,360.945 75.593,369.921L75.593,371.145L96.792,371.145L96.792,369.921C96.792,365.025 96.927,361.081 97.471,358.225C97.879,355.913 98.694,354.552 99.379,353.736C100.614,352.648 102.38,351.424 104.418,349.928C111.347,344.896 121.129,338.096 121.129,327.759C121.129,323.679 120.314,319.871 118.819,316.472Z"/>
            </g>
        </g>
    </g>
</svg>
