<?xml version="1.0" encoding="UTF-8"?><svg id="_レイヤー_2" xmlns="http://www.w3.org/2000/svg" viewBox="0 0 1123.3 462.03"><defs><style>.cls-1{fill:none;}.cls-1,.cls-2,.cls-3,.cls-4{stroke-width:0px;}.cls-5{isolation:isolate;}.cls-2{fill:#7ac9c7;}.cls-3{fill:#444241;}.cls-4{fill:#00ab97;}</style></defs><g id="_レイヤー_1-2"><g id="_ページ2"><rect class="cls-1" width="1123.3" height="392.3"/><g id="_ロゴ"><path class="cls-3" d="m645.66,122.66l-23.75,11.53.32,26.08,23.12-11.22.31-26.38Z"/><path class="cls-3" d="m534.52,289.2c0,4.8,5.2,8.7,11.6,8.7s11.6-3.8,11.7-8.6h0v-76l37.6-18.1-.1-23.6-52.7,25.6h0c-4.6,1.9-8,5.9-8,11"/><path class="cls-3" d="m645.4,176.91l-23,11.3-.3.1v100.5c0,4.8,5.2,9,11.6,9s11.6-3.8,11.7-8.6"/><path class="cls-3" d="m931.93,288.85v-98.7h0v-1.7c0-6.4-5-11.5-11.5-11.5-2.2,0-4.1.9-6,1.7h0l-55.1,25.9v-88.1l-23.1,11.3h-.2v161.1h0v.7c0,4.8,5.2,8.7,11.6,8.7s11.7-3.9,11.7-8.7v-.6h0v-61l49.4-23.2v84.4c0,4.8,5.1,9.1,11.6,9.1s11.7-4.3,11.7-9.1"/><path class="cls-3" d="m1071.02,266.21l-25.2-11.5,2.1,1.2-2.2-1.2-28,14.2v-78.6l33.7-14h0l18.7-7.5-26.2-12.5.1.2-.1-.1-26.3,10.9v-45.7l-23.3,11.2v44.1l-31.6,13.1h0l-.2.1h0c-5.3,2.2-7.9,8.2-5.8,13.6,2.1,5.4,8.2,8.1,13.7,6,.1,0,.2,0,.3-.1h0l23.7-9.8v87.1c.5,5.9,5.5,10.4,11.6,10.4.9,0,1.8-.1,2.7-.4h0l.3-.1c1.5-.4,2.7-.7,4.2-1.5"/><path class="cls-3" d="m432.46,208.34l52.5,24.6-76.3,36.7v-123.8l60.3,28.6-36.5,17.8h0l-16.2,8m-30.9,86.6c.3,6.1,5.4,11,11.6,11,2.7,0,4.8-1.3,7.1-2.5l92.2-44.4c7.3-3.6,12.8-8.9,12.9-17,.1-8-5-14.3-12.1-17.1l-.3-.1-33.7-15.8,20.9-10.2c.5-.2.9-.4,1.3-.6l2.1-1,.2-.1c5.1-3.1,7.3-8.5,7.3-14.5,0-7-4.9-13.4-10-15.9l-.1-.1-80.8-38.3c-2.1-1.2-5-2.2-6.9-2.3-6.2-.2-11.2,4.9-11.6,11h-.1v.7m0,156.6v.1"/><path class="cls-3" d="m693.81,209.14h0c-4.9,2.4-8.1,7.4-8.1,13.1,0,5.3,2.8,10,7.1,12.6h0l.6.3c.6.3,1.3.6,1.8.9l44.7,20.8v.1h.1l23.7-12.5-14.7-6.7h0l-33-15.4,52.6-24.1v119.2l-67.3-31.1-26.5,12.3s102.2,46.1,102.9,46.4l.6.2h.1c.9.2,1.8.4,2.8.4,5.9,0,10.7-4.9,10.7-10.9v-152.3c0-6.4-5.2-12-11.6-11.6-1.4.1-2.6.1-3.9.6"/></g><g id="_マーク"><path class="cls-4" d="m301.63,124.82L169.83,48.62,37.93,124.72v152.3l131.9,76.1,131.9-76.1V124.82h-.1Z"/><path class="cls-2" d="m169.85,48.66l-.5,152.3,132.4-76.1L169.85,48.66Z"/></g></g><rect class="cls-1" x="45.72" y="375.4" width="1031.4" height="80"/><g class="cls-5"><path class="cls-3" d="m47.72,452.56c-.61-.92-1.46-2.16-2.53-3.73-1.07-1.56-2.07-2.71-2.99-3.45,4.72-2.02,9.44-4.6,14.17-7.73,4.72-3.13,9.23-6.64,13.52-10.53,4.29-3.89,8.19-8.03,11.68-12.42,3.5-4.38,6.38-8.82,8.65-13.29-2.82.18-6.03.38-9.61.6s-7.21.45-10.86.69c-3.65.25-7.01.46-10.07.64-3.07.18-5.49.34-7.27.46l-1.01-8.92c1.47,0,3.71-.03,6.72-.09,3-.06,6.36-.17,10.07-.32,3.71-.15,7.42-.34,11.13-.55,3.71-.21,7.05-.43,10.03-.64,2.97-.21,5.17-.44,6.58-.69l5.7,3.68c-1.53,4.23-3.48,8.37-5.84,12.42-2.36,4.05-5.08,7.97-8.14,11.78,2.08,1.66,4.32,3.53,6.72,5.61,2.39,2.09,4.75,4.25,7.08,6.49,2.33,2.24,4.51,4.39,6.53,6.44,2.02,2.06,3.68,3.91,4.97,5.57-1.04.68-2.29,1.64-3.73,2.9-1.44,1.26-2.59,2.41-3.45,3.45-1.23-1.72-2.78-3.63-4.65-5.75-1.87-2.12-3.91-4.29-6.12-6.53-2.21-2.24-4.42-4.4-6.62-6.49-2.21-2.08-4.23-3.89-6.07-5.43-5.09,5.46-10.64,10.41-16.65,14.86-6.01,4.45-11.99,8.11-17.94,10.99Z"/><path class="cls-3" d="m162.54,458.17c-.06-1.29-.25-3.46-.55-6.53-.31-3.07-.68-6.64-1.1-10.72-.43-4.08-.89-8.17-1.38-12.28-4.17.49-8.33,1-12.47,1.52-4.14.52-7.96,1.01-11.45,1.47s-6.38.87-8.65,1.24l-1.01-8.74c2.02-.12,4.75-.35,8.19-.69,3.43-.34,7.28-.74,11.55-1.2,4.26-.46,8.57-.93,12.93-1.43l-1.56-14.08c-4.78.55-9.35,1.1-13.71,1.66-4.36.55-7.82,1.07-10.4,1.56l-1.01-8.74c2.51-.12,5.99-.4,10.44-.83,4.45-.43,9.03-.92,13.75-1.47-.37-3.13-.74-6.03-1.1-8.69s-.71-4.68-1.01-6.03l9.2-1.01c.06,1.47.2,3.51.41,6.12.21,2.61.51,5.51.87,8.69,4.72-.61,9.18-1.2,13.39-1.75,4.2-.55,7.47-1.01,9.8-1.38l1.01,8.65c-2.27.06-5.52.32-9.75.78s-8.77.97-13.62,1.52l1.66,13.98c4.23-.49,8.34-.98,12.33-1.47,3.99-.49,7.59-.97,10.81-1.43,3.22-.46,5.78-.84,7.68-1.15l1.01,8.65c-1.6.12-4.03.35-7.31.69-3.28.34-6.99.72-11.13,1.15-4.14.43-8.3.89-12.47,1.38.49,4.05.98,8.08,1.47,12.1.49,4.02.95,7.58,1.38,10.67.43,3.1.74,5.35.92,6.76l-9.11,1.01Z"/><path class="cls-3" d="m213.6,451.45c-.37-.61-.92-1.35-1.66-2.21-.74-.86-1.52-1.7-2.35-2.53-.83-.83-1.55-1.49-2.16-1.98,6.75-3.56,11.81-7.64,15.18-12.24,3.37-4.6,5.46-9.89,6.26-15.87.8-5.98.64-12.74-.46-20.29l8.28-.74c1.29,8.65,1.39,16.42.32,23.32-1.07,6.9-3.51,13.02-7.31,18.35-3.8,5.34-9.17,10.06-16.1,14.17Zm40.11-2.94l-4.69-3.77c.06-.86.11-2.35.14-4.46.03-2.12.06-4.57.09-7.36.03-2.79.05-5.69.05-8.69v-8.37c0-4.35-.02-8.65-.05-12.88-.03-4.23-.11-7.57-.23-10.03h8.92c-.06,1.17-.11,3.05-.14,5.66-.03,2.61-.06,5.43-.09,8.46-.03,3.04-.05,5.84-.05,8.42v21.62c2.58-1.16,5.46-2.58,8.65-4.23,3.19-1.66,6.35-3.4,9.48-5.24,3.13-1.84,5.98-3.65,8.56-5.43,2.58-1.78,4.57-3.34,5.98-4.69,0,.8.09,1.87.28,3.22.18,1.35.41,2.62.69,3.82.28,1.2.47,2.04.6,2.53-2.02,1.72-4.68,3.6-7.96,5.66-3.28,2.06-6.78,4.11-10.49,6.16-3.71,2.06-7.31,3.93-10.81,5.61-3.5,1.69-6.47,3.02-8.92,4Z"/><path class="cls-3" d="m307.35,456.7c-.37-.37-1.01-.86-1.93-1.47s-1.86-1.21-2.81-1.79c-.95-.58-1.7-.93-2.25-1.06,2.51-2.76,5-6.18,7.45-10.26,2.45-4.08,4.78-8.56,6.99-13.43s4.17-9.86,5.89-14.95c-3.31.43-6.52.87-9.61,1.33-3.1.46-5.6.94-7.5,1.43-.06-.55-.2-1.36-.41-2.44-.22-1.07-.46-2.15-.74-3.22-.28-1.07-.51-1.82-.69-2.25,2.15-.18,5.18-.47,9.11-.87,3.92-.4,7.94-.81,12.05-1.24,1.23-3.99,2.21-7.88,2.94-11.68.74-3.8,1.23-7.36,1.47-10.67l8.28,1.47c-.25,3-.74,6.21-1.47,9.61-.74,3.4-1.63,6.92-2.67,10.53,2.88-.18,5.24-.28,7.08-.28,2.39,0,4.49.38,6.3,1.15,1.81.77,3.23,2.1,4.28,4,1.04,1.9,1.62,4.54,1.75,7.91.12,3.37-.34,7.64-1.38,12.79-1.1,5.83-2.38,10.49-3.82,13.98-1.44,3.5-3.25,6.03-5.43,7.59-2.18,1.56-4.92,2.35-8.23,2.35-1.72,0-3.37-.18-4.97-.55-1.6-.37-3.13-1.01-4.6-1.93.06-1.1.09-2.48.09-4.14s-.09-3-.28-4.05c2.88,1.78,5.86,2.67,8.92,2.67,1.66,0,3.07-.49,4.23-1.47,1.16-.98,2.24-2.74,3.22-5.29.98-2.54,1.96-6.15,2.94-10.81.8-3.8,1.23-6.84,1.29-9.11.06-2.27-.17-3.99-.69-5.15-.52-1.16-1.24-1.93-2.16-2.3s-1.99-.55-3.22-.55c-.98,0-2.12.03-3.4.09-1.29.06-2.67.15-4.14.28-1.9,5.7-4.08,11.33-6.53,16.88-2.45,5.55-4.98,10.66-7.59,15.32-2.61,4.66-5.2,8.53-7.77,11.59Zm68.63-24.38c-.98-1.66-2.35-3.57-4.09-5.75-1.75-2.18-3.63-4.37-5.66-6.58s-4-4.22-5.93-6.03c-1.93-1.81-3.63-3.2-5.11-4.19l6.16-5.34c1.59,1.1,3.39,2.58,5.38,4.42,1.99,1.84,4.02,3.82,6.07,5.93,2.05,2.12,3.96,4.2,5.7,6.26,1.75,2.06,3.11,3.85,4.09,5.38l-6.62,5.89Zm-2.12-27.14c-1.1-.98-2.44-2.01-4-3.08-1.56-1.07-3.17-2.08-4.83-3.04-1.66-.95-3.13-1.7-4.42-2.25l3.13-4.32c1.16.49,2.61,1.26,4.32,2.3,1.72,1.04,3.42,2.12,5.11,3.22,1.69,1.1,3.02,2.06,4,2.85l-3.31,4.32Zm5.7-8.65c-1.1-.98-2.47-1.99-4.09-3.04-1.63-1.04-3.27-2.02-4.92-2.94-1.66-.92-3.13-1.62-4.42-2.12l3.04-4.32c1.16.49,2.62,1.23,4.37,2.21,1.75.98,3.48,1.99,5.2,3.04,1.72,1.04,3.07,1.96,4.05,2.76l-3.22,4.42Z"/><path class="cls-3" d="m429.25,459.64c-.74-.8-1.81-1.67-3.22-2.62-1.41-.95-2.7-1.67-3.86-2.16,4.72-2.88,9.02-6.65,12.88-11.32,3.86-4.66,6.99-9.75,9.38-15.27-3.13-.92-6.21-1.66-9.25-2.21s-6-.95-8.88-1.2c-1.6,2.88-3.22,5.52-4.88,7.91-1.66,2.39-3.28,4.39-4.88,5.98-2.45,2.45-5.09,4.16-7.91,5.11-2.82.95-5.47,1.23-7.96.83-2.48-.4-4.51-1.43-6.07-3.08s-2.35-3.89-2.35-6.72c0-3.25,1.16-6.21,3.5-8.88,2.33-2.67,5.66-4.8,9.98-6.39s9.52-2.42,15.59-2.48c1.96-3.86,3.83-8.02,5.61-12.47,1.78-4.45,3.34-8.82,4.69-13.11-2.33.61-4.88,1.23-7.64,1.84-2.76.61-5.35,1.17-7.77,1.66-2.42.49-4.37.83-5.84,1.01l-2.3-8.19c1.59-.12,3.63-.34,6.12-.64,2.48-.31,5.12-.7,7.91-1.2,2.79-.49,5.41-1,7.87-1.52,2.45-.52,4.42-1.06,5.89-1.61l5.98,3.22c-1.17,4.6-2.81,9.69-4.92,15.27-2.12,5.58-4.43,11.01-6.95,16.28,2.64.25,5.38.66,8.23,1.24,2.85.58,5.78,1.27,8.79,2.07,1.35-4.42,2.05-8.77,2.12-13.06l8.46,2.02c-.31,4.48-1.14,8.92-2.48,13.34,5.21,1.66,10.18,3.56,14.9,5.7-.68.8-1.43,2.04-2.25,3.73-.83,1.69-1.43,3.08-1.79,4.19-2.09-1.17-4.28-2.25-6.58-3.27-2.3-1.01-4.65-1.95-7.04-2.81-2.45,5.77-5.67,11.18-9.66,16.24-3.99,5.06-8.46,9.25-13.43,12.56Zm-29.44-25.58c.12.98.7,1.75,1.75,2.3,1.04.55,2.38.63,4,.23,1.62-.4,3.36-1.43,5.2-3.08,1.96-1.96,4.08-4.88,6.35-8.74-5.52.43-9.81,1.55-12.88,3.36-3.07,1.81-4.54,3.79-4.42,5.93Z"/><path class="cls-3" d="m489.14,457.06l-8.1-3.59c.67-1.41,1.73-3.56,3.17-6.44,1.44-2.88,3.11-6.26,5.01-10.12,1.9-3.86,3.92-7.99,6.07-12.37,2.15-4.38,4.29-8.77,6.44-13.16,2.15-4.38,4.19-8.52,6.12-12.42,1.93-3.89,3.63-7.31,5.11-10.26s2.61-5.15,3.4-6.62l8.56,3.86c-1.29,1.84-2.98,4.6-5.06,8.28-2.09,3.68-4.37,7.9-6.85,12.65-2.48,4.75-4.98,9.61-7.5,14.58,1.78-1.41,3.62-2.51,5.52-3.31,1.9-.8,3.83-1.2,5.8-1.2,4.17,0,7.08,1.2,8.74,3.59,1.66,2.39,2.48,5.98,2.48,10.76,0,.92-.03,2.15-.09,3.68-.06,1.53-.09,2.79-.09,3.77,0,3.44.41,5.74,1.24,6.9.83,1.17,2.44,1.75,4.83,1.75,3.37,0,6.55-1.61,9.52-4.83,2.97-3.22,5.44-7.53,7.41-12.93.86,1.04,1.95,2.16,3.27,3.36,1.32,1.2,2.44,2.13,3.36,2.81-6.26,13.49-14.51,20.24-24.75,20.24-4.29,0-7.51-1.1-9.66-3.31-2.15-2.21-3.22-6.07-3.22-11.59,0-.49.01-1.23.05-2.21.03-.98.06-1.99.09-3.04.03-1.04.05-1.9.05-2.58,0-3.13-.46-5.35-1.38-6.67-.92-1.32-2.48-1.98-4.69-1.98s-4.34.55-6.39,1.66c-2.06,1.1-3.93,2.59-5.61,4.46-1.69,1.87-3.05,3.91-4.09,6.12-2.09,4.48-3.9,8.43-5.43,11.87-1.53,3.44-2.64,6.2-3.31,8.28Z"/><path class="cls-3" d="m578.75,443.45c-.43-.37-1.07-.84-1.93-1.43-.86-.58-1.76-1.15-2.71-1.7-.95-.55-1.76-.95-2.44-1.2,3.86-4.35,7.36-9.54,10.49-15.55,3.13-6.01,5.7-12.3,7.73-18.86-3.44.55-6.64,1.03-9.61,1.43-2.98.4-5.32.66-7.04.78l-1.2-8c2.27-.06,5.18-.26,8.74-.6,3.56-.34,7.3-.81,11.22-1.43.67-2.94,1.21-5.86,1.61-8.74.4-2.88.63-5.7.69-8.46l8,1.01c-.25,2.45-.54,4.92-.87,7.41-.34,2.48-.75,4.92-1.24,7.31,2.45-.49,4.78-.98,6.99-1.47,2.21-.49,4.14-.98,5.8-1.47l1.01,7.64c-1.9.49-4.22,1.03-6.95,1.61-2.73.58-5.63,1.12-8.69,1.61-2.09,7.61-4.8,14.83-8.14,21.67-3.34,6.84-7.16,12.99-11.45,18.45Zm25.67,16.56c-4.42-.12-7.84-1.37-10.26-3.73-2.42-2.36-3.6-5.23-3.54-8.6.06-2.08.72-4.02,1.98-5.8,1.26-1.78,3.1-3.19,5.52-4.23,2.42-1.04,5.35-1.5,8.79-1.38,1.1.06,2.21.14,3.31.23,1.1.09,2.18.23,3.22.41v-22.63h8v24.66c3.62,1.17,7.05,2.67,10.3,4.51,3.25,1.84,6.29,3.86,9.11,6.07-.86.8-1.76,1.93-2.71,3.4-.95,1.47-1.64,2.73-2.07,3.77-4.54-3.99-9.42-7.21-14.63-9.66-.12,4.48-1.66,7.81-4.6,9.98-2.94,2.18-7.08,3.17-12.42,2.99Zm.55-7.18c2.7,0,4.78-.6,6.26-1.79,1.47-1.2,2.21-3.11,2.21-5.75v-1.1c-2.27-.49-4.63-.8-7.08-.92-2.45-.06-4.39.35-5.8,1.24-1.41.89-2.15,2.04-2.21,3.45-.06,1.41.47,2.58,1.61,3.5,1.13.92,2.81,1.38,5.01,1.38Zm33.3-37.81c-1.29-1.41-3.08-2.96-5.38-4.65-2.3-1.69-4.69-3.27-7.18-4.74-2.48-1.47-4.65-2.54-6.49-3.22l4.23-6.26c1.41.55,3.04,1.32,4.88,2.3,1.84.98,3.73,2.07,5.66,3.27,1.93,1.2,3.73,2.41,5.38,3.63,1.66,1.23,3,2.33,4.05,3.31l-5.15,6.35Z"/><path class="cls-3" d="m701.02,459.27c-4.72,0-8.96-.48-12.7-1.43-3.74-.95-6.7-2.44-8.88-4.46-2.18-2.02-3.27-4.69-3.27-8,0-2.76.89-5.29,2.67-7.59,1.78-2.3,4.22-4.43,7.31-6.39,3.1-1.96,6.55-3.74,10.35-5.34v-1.01c0-2.76-.57-4.69-1.7-5.8-1.14-1.1-2.59-1.72-4.37-1.84-3.13-.18-6.26.31-9.38,1.47-3.13,1.17-5.98,3.1-8.56,5.8-1.1,1.17-2.42,2.52-3.96,4.05s-2.91,2.82-4.14,3.86l-6.16-6.16c4.35-3.07,8.45-6.87,12.28-11.41,3.83-4.54,7.04-9.29,9.61-14.26-3.74.18-7.16.31-10.26.37-3.1.06-5.41.06-6.95,0l-.37-8.19c1.96.18,4.86.28,8.69.28s7.99-.12,12.47-.37c.8-2.15,1.43-4.26,1.89-6.35s.72-4.08.78-5.98l8.46.55c-.18,3.74-.92,7.48-2.21,11.22,4.72-.31,9.15-.71,13.29-1.2,4.14-.49,7.28-1.01,9.43-1.56l.55,7.91c-1.72.37-3.97.72-6.76,1.06-2.79.34-5.86.64-9.2.92-3.34.28-6.76.54-10.26.78-.92,2.08-2.06,4.22-3.4,6.39-1.35,2.18-2.73,4.25-4.14,6.21,1.47-.8,3.11-1.39,4.92-1.79,1.81-.4,3.51-.6,5.11-.6,3.62,0,6.5,1.01,8.65,3.04,2.15,2.02,3.43,5.21,3.86,9.57,3.62-1.29,7.28-2.44,10.99-3.45,3.71-1.01,7.13-1.89,10.26-2.62l2.48,7.82c-4.23.61-8.34,1.43-12.33,2.44-3.99,1.01-7.73,2.13-11.22,3.36v12.6h-8.37v-9.48c-3.62,1.72-6.55,3.51-8.79,5.38-2.24,1.87-3.36,3.7-3.36,5.47,0,2.33,1.39,4.02,4.19,5.06,2.79,1.04,6.76,1.56,11.91,1.56,1.96,0,4.14-.14,6.53-.41,2.39-.28,4.8-.64,7.22-1.1,2.42-.46,4.61-.97,6.58-1.52-.12.55-.18,1.37-.18,2.44s.03,2.16.09,3.27c.06,1.1.12,1.99.18,2.67v.37c-3.07.8-6.38,1.39-9.94,1.79-3.56.4-6.87.6-9.94.6Z"/><path class="cls-3" d="m747.75,460.93c-.61-.55-1.55-1.29-2.81-2.21-1.26-.92-2.25-1.53-2.99-1.84,2.88-2.64,5.14-5.6,6.76-8.88,1.62-3.28,2.76-7.19,3.4-11.73.64-4.54.97-10,.97-16.38v-1.66h-8.83v-7.08h14.44v-31.56h7.45v31.56h14.17v7.08h-8.83v23.92c.61-.37,1.49-.92,2.62-1.66,1.13-.74,2.3-1.52,3.5-2.35,1.2-.83,2.16-1.52,2.9-2.07v8c-1.84,1.35-3.94,2.84-6.3,4.46-2.36,1.63-4.46,3.02-6.3,4.19l-3.22-2.12v-32.38h-4.88v1.66c0,5.7-.2,10.6-.6,14.67-.4,4.08-1.06,7.64-1.98,10.67-.92,3.04-2.16,5.78-3.73,8.23-1.56,2.45-3.48,4.94-5.75,7.45Zm3.13-54.19c-.37-1.59-.89-3.5-1.56-5.7s-1.4-4.42-2.16-6.62c-.77-2.21-1.49-4.08-2.16-5.61l6.35-2.21c.74,1.47,1.49,3.3,2.25,5.47.77,2.18,1.49,4.37,2.16,6.58.67,2.21,1.2,4.14,1.56,5.8-.43.12-1.09.34-1.98.64-.89.31-1.75.61-2.58.92-.83.31-1.46.55-1.89.74Zm21.99.18c-.25-.18-.8-.43-1.66-.74-.86-.31-1.72-.63-2.58-.97-.86-.34-1.44-.54-1.75-.6.74-1.41,1.5-3.23,2.3-5.47.8-2.24,1.52-4.55,2.16-6.95.64-2.39,1.12-4.45,1.43-6.16l6.53,1.47c-.37,1.84-.91,3.96-1.61,6.35-.71,2.39-1.47,4.74-2.3,7.04s-1.67,4.31-2.53,6.03Zm27.42,55.11v-12.97h-19.23v-6.53h19.23v-5.7h-16.65v-29.35h16.65v-5.61h-14.63v-3.04h-4.78v-17.02h46v17.02h-4.97v3.04h-14.17v5.61h16.65v29.35h-16.65v5.7h20.42v6.53h-20.42v12.97h-7.45Zm-11.87-66.15h11.87v-7.73h7.45v7.73h11.68v-7.91h-31v7.91Zm2.48,23.37h9.38v-6.26h-9.38v6.26Zm0,12.05h9.38v-6.72h-9.38v6.72Zm16.84-12.05h9.38v-6.26h-9.38v6.26Zm0,12.05h9.38v-6.72h-9.38v6.72Z"/><path class="cls-3" d="m846.47,456.7c-.37-.37-1.01-.86-1.93-1.47s-1.86-1.21-2.81-1.79c-.95-.58-1.7-.93-2.25-1.06,2.51-2.76,5-6.18,7.45-10.26,2.45-4.08,4.78-8.56,6.99-13.43s4.17-9.86,5.89-14.95c-3.31.43-6.52.87-9.61,1.33-3.1.46-5.6.94-7.5,1.43-.06-.55-.2-1.36-.41-2.44-.22-1.07-.46-2.15-.74-3.22-.28-1.07-.51-1.82-.69-2.25,1.47-.12,3.34-.29,5.61-.51,2.27-.21,4.75-.47,7.45-.78,2.7-.31,5.4-.58,8.1-.83,1.23-3.99,2.21-7.88,2.94-11.68.74-3.8,1.23-7.36,1.47-10.67l8.28,1.47c-.25,3-.74,6.21-1.47,9.61-.74,3.4-1.63,6.92-2.67,10.53,2.88-.18,5.24-.28,7.08-.28,2.39,0,4.49.38,6.3,1.15,1.81.77,3.23,2.1,4.28,4,1.04,1.9,1.62,4.52,1.75,7.87.12,3.34-.34,7.62-1.38,12.83-1.1,5.83-2.38,10.49-3.82,13.98-1.44,3.5-3.25,6.03-5.43,7.59-2.18,1.56-4.92,2.35-8.23,2.35-1.72,0-3.37-.18-4.97-.55-1.6-.37-3.13-1.01-4.6-1.93.06-1.1.09-2.48.09-4.14s-.09-3-.28-4.05c2.88,1.78,5.86,2.67,8.92,2.67,1.66,0,3.08-.49,4.28-1.47,1.2-.98,2.27-2.74,3.22-5.29.95-2.54,1.92-6.15,2.9-10.81.8-3.8,1.23-6.84,1.29-9.11.06-2.27-.17-3.99-.69-5.15-.52-1.16-1.24-1.93-2.16-2.3s-1.99-.55-3.22-.55c-.98,0-2.12.03-3.4.09-1.29.06-2.67.15-4.14.28-1.9,5.7-4.08,11.33-6.53,16.88-2.45,5.55-4.98,10.66-7.59,15.32-2.61,4.66-5.2,8.53-7.77,11.59Zm68.63-24.38c-.98-1.66-2.35-3.57-4.09-5.75-1.75-2.18-3.63-4.37-5.66-6.58-2.02-2.21-4-4.22-5.93-6.03-1.93-1.81-3.63-3.2-5.11-4.19l6.16-5.34c1.59,1.1,3.39,2.58,5.38,4.42,1.99,1.84,4.02,3.82,6.07,5.93,2.05,2.12,3.96,4.2,5.7,6.26,1.75,2.06,3.11,3.85,4.09,5.38l-6.62,5.89Z"/><path class="cls-3" d="m964.41,455.13c-5.21,0-9.32-.44-12.33-1.33-3-.89-5.12-2.44-6.35-4.65-1.23-2.21-1.84-5.24-1.84-9.11v-24.38c-4.17.43-8.02.92-11.55,1.47-3.53.55-6.46,1.07-8.79,1.56l-1.01-8.37c2.51-.37,5.61-.75,9.29-1.15,3.68-.4,7.7-.81,12.05-1.24v-20.33h8v19.6c3.62-.31,7.27-.6,10.95-.87,3.68-.28,7.3-.54,10.86-.78v-20.79h8.19v20.24c4.11-.24,7.9-.43,11.36-.55,3.46-.12,6.36-.18,8.69-.18v8.56c-5.03-.31-11.72-.31-20.06,0v6.35c0,3.07-.51,5.6-1.52,7.59-1.01,1.99-2.73,3.53-5.15,4.6-2.42,1.07-5.78,1.79-10.07,2.16-.25-1.23-.64-2.61-1.2-4.14-.55-1.53-1.17-2.73-1.84-3.59,4.42-.12,7.45-.69,9.11-1.7,1.66-1.01,2.48-2.65,2.48-4.92v-5.89c-3.56.18-7.18.41-10.86.69-3.68.28-7.33.57-10.95.87v24.2c0,2.21.38,3.88,1.15,5.01.77,1.14,2.07,1.92,3.91,2.35,1.84.43,4.42.64,7.73.64,2.15,0,4.71-.11,7.68-.32,2.97-.21,6-.52,9.06-.92,3.07-.4,5.8-.9,8.19-1.52-.43,1.17-.77,2.7-1.01,4.6-.25,1.9-.34,3.34-.28,4.32-3.74.61-7.81,1.09-12.19,1.43-4.39.34-8.3.51-11.73.51Z"/><path class="cls-3" d="m1046.38,456.79c-6.81,0-11.82-1.26-15.04-3.77-3.22-2.51-4.83-5.61-4.83-9.29,0-2.33.58-4.32,1.75-5.98,1.16-1.66,2.7-2.91,4.6-3.77,1.9-.86,3.89-1.29,5.98-1.29,4.05,0,7.37,1.4,9.98,4.19,2.61,2.79,4.15,6.33,4.65,10.63,2.94-.98,5.43-2.65,7.45-5.01,2.02-2.36,3.04-5.38,3.04-9.06,0-2.82-.66-5.3-1.98-7.45-1.32-2.15-3.14-3.83-5.47-5.06-2.33-1.23-5.03-1.84-8.1-1.84-8.04,0-14.72,2.3-20.06,6.9-1.1.98-2.58,2.22-4.42,3.73-1.84,1.5-3.56,2.84-5.15,4l-5.7-6.16c2.88-1.72,5.98-3.92,9.29-6.62,3.31-2.7,6.61-5.67,9.89-8.92,3.28-3.25,6.39-6.59,9.34-10.03,2.94-3.43,5.52-6.78,7.73-10.03-2.58.61-5.52,1.21-8.83,1.79-3.31.58-6.55,1.07-9.71,1.47-3.16.4-5.84.66-8.05.78l-1.47-8.1c1.66.06,3.73.02,6.21-.14,2.48-.15,5.12-.38,7.91-.69,2.79-.31,5.52-.66,8.19-1.06,2.67-.4,5.06-.84,7.18-1.33,2.12-.49,3.67-.95,4.65-1.38l6.35,4.32c-1.41,2.76-3.24,5.69-5.47,8.79-2.24,3.1-4.71,6.21-7.41,9.34-2.7,3.13-5.49,6.13-8.37,9.02,1.41-.67,2.97-1.23,4.69-1.66,1.72-.43,3.37-.64,4.97-.64,4.48,0,8.4.89,11.78,2.67,3.37,1.78,6.03,4.23,7.96,7.36,1.93,3.13,2.9,6.78,2.9,10.95,0,4.48-1.12,8.48-3.36,12.01-2.24,3.53-5.34,6.3-9.29,8.33-3.96,2.02-8.54,3.04-13.75,3.04Zm-1.56-7.82h1.1c-.18-2.7-.92-4.91-2.21-6.62-1.29-1.72-2.91-2.58-4.88-2.58-1.29,0-2.35.32-3.17.97-.83.64-1.24,1.58-1.24,2.81,0,1.53.8,2.79,2.39,3.77,1.59.98,4.26,1.53,8,1.66Z"/></g></g></svg>