<?xml version="1.0" encoding="UTF-8"?>
<svg id="_レイヤー_2" data-name=" レイヤー 2" xmlns="http://www.w3.org/2000/svg" viewBox="0 0 143.26 54.42">
  <defs>
    <style>
      .cls-1 {
        fill: #00ab97;
      }

      .cls-2 {
        fill: #444141;
      }

      .cls-3 {
        fill: #7ac9c6;
      }

      .cls-4 {
        isolation: isolate;
      }
    </style>
  </defs>
  <g id="_ロゴ" data-name=" ロゴ">
    <polygon class="cls-2" points="84.27 10.26 80.98 11.86 81.02 15.48 84.23 13.91 84.27 10.26"/>
    <path class="cls-2" d="m68.86,33.35c0,.67.72,1.21,1.61,1.21s1.61-.53,1.62-1.19h0v-10.54l5.21-2.51-.02-3.27-7.31,3.55h0c-.63.26-1.1.81-1.1,1.53"/>
    <path class="cls-2" d="m84.24,17.78l-3.19,1.57-.04.02v13.95c0,.67.72,1.25,1.61,1.25s1.61-.53,1.62-1.19"/>
    <path class="cls-2" d="m123.98,33.31v-13.69h0v-.24c0-.89-.7-1.6-1.59-1.6-.31,0-.57.12-.83.24h0l-7.64,3.58v-12.21l-3.2,1.57h-.03v22.34h0v.09c0,.67.72,1.21,1.61,1.21s1.62-.54,1.62-1.21v-.09h0v-8.47l6.84-3.21v11.7c0,.67.71,1.26,1.61,1.26s1.62-.6,1.62-1.27"/>
    <path class="cls-2" d="m143.26,30.17l-3.5-1.6.29.16-.3-.16-3.88,1.97v-10.9l4.67-1.94h0l2.6-1.03-3.63-1.73v.03-.02l-3.64,1.51v-6.34l-3.23,1.56v6.12l-4.38,1.82h-.02c-.74.31-1.1,1.15-.81,1.9s1.14,1.13,1.9.83c0,0,.03,0,.04-.01h0l3.28-1.36v12.08c.08.82.77,1.44,1.61,1.44.13,0,.26-.02.38-.05h0l.05-.02c.21-.06.37-.1.59-.21"/>
    <path class="cls-2" d="m48.17,32.94v.02m0,.07c.05.85.74,1.53,1.61,1.53.37,0,.67-.18.98-.34l12.79-6.15c1.02-.49,1.77-1.23,1.78-2.36.01-1.11-.69-1.98-1.68-2.37l-.04-.02-4.68-2.19,2.9-1.42.18-.09.29-.14h.02c.71-.45,1.02-1.19,1.02-2.02,0-.98-.68-1.86-1.38-2.2h-.02l-11.2-5.33c-.3-.16-.69-.31-.96-.32-.86-.03-1.56.67-1.6,1.52h0v.1m6.53,10.92l7.29,3.42-10.59,5.09V13.49l8.35,3.97-5.06,2.47h0l-2.25,1.11"/>
    <path class="cls-2" d="m90.95,22.25h0c-.67.33-1.12,1.03-1.12,1.82,0,.74.39,1.39.99,1.74h0l.08.04c.08.04.18.08.26.13l6.2,2.88h0l3.28-1.73-2.04-.93h0l-4.58-2.14,7.29-3.35v16.53l-9.33-4.32-3.68,1.7s14.17,6.39,14.26,6.43l.09.03h.01c.12.04.25.06.39.06.82,0,1.48-.68,1.48-1.51v-21.07h0v-.04c0-.89-.72-1.66-1.61-1.61-.19.01-.35.01-.54.08"/>
  </g>
  <g id="_マーク" data-name=" マーク">
    <polygon class="cls-1" points="36.57 10.56 18.29 0 0 10.56 0 31.67 18.29 42.23 36.57 31.67 36.57 10.56"/>
    <polygon class="cls-3" points="18.29 0 18.22 21.12 36.57 10.56 18.29 0"/>
  </g>
  <g>
    <g class="cls-4">
      <path class="cls-2" d="m5.93,51.33h1.56c.73,0,1.46-.02,2.2-.04.12-.01.17.04.17.17.01.28.01.59,0,.87,0,.14-.03.2-.16.2-.52-.02-1.49-.04-2.2-.04H3.12c-.45,0-1.15.03-2,.04-.17.01-.2-.03-.23-.22-.04-.24-.08-.63-.08-1.02.78.04,1.61.05,2.31.05h1.48v-3.72h-.85c-.78,0-1.24.02-1.68.04-.13.01-.15-.07-.18-.23-.04-.22-.09-.64-.09-1.01.54.05.98.04,1.88.04h3.08c.66,0,1.26,0,1.9-.03.11-.01.14.05.14.17.01.27.01.58,0,.85-.01.14-.03.21-.15.21-.73-.03-1.26-.04-1.87-.04h-.85v3.71Z"/>
    </g>
    <g class="cls-4">
      <path class="cls-2" d="m11.51,45.9c.04-.05.1-.09.15-.09.04,0,.09.02.14.05.55.29,1.46.96,2.08,1.54.06.07.1.11.1.15s-.02.09-.07.14c-.16.22-.52.65-.67.81-.05.05-.09.09-.13.09s-.09-.03-.14-.09c-.65-.67-1.44-1.29-2.22-1.77.24-.29.55-.63.76-.85Zm.95,5.73c1.33-.69,2.03-1.14,3.13-2.02,1.33-1.08,2.06-1.77,2.98-2.96.06.54.16.91.3,1.27.03.08.05.14.05.21,0,.1-.05.18-.17.33-.58.67-1.51,1.54-2.5,2.3-.9.71-1.82,1.32-3.28,2.13-.49.29-.63.4-.73.5-.06.07-.13.11-.2.11-.05,0-.12-.04-.18-.12-.27-.3-.61-.75-.87-1.21.55-.15.89-.25,1.47-.54Z"/>
    </g>
    <g class="cls-4">
      <path class="cls-2" d="m21.27,47.98c.05-.08.11-.13.21-.11.82.27,1.47.62,2.09,1.07.08.05.12.1.12.16,0,.03-.02.08-.04.12-.12.29-.3.58-.48.83-.06.06-.1.11-.14.11s-.08-.02-.13-.06c-.7-.51-1.4-.87-2.2-1.19.27-.43.45-.75.58-.92Zm1.76,4.03c1.03-.54,1.92-1.05,2.98-1.88.87-.66,2.03-1.71,3.13-3.03.06.48.15.75.31,1.22.03.08.06.14.06.21,0,.09-.03.16-.12.25-1.01,1.09-1.7,1.68-2.76,2.51-.95.72-1.96,1.34-3.25,2.04-.26.14-.52.26-.63.37-.07.06-.12.09-.17.09-.08,0-.15-.04-.22-.13-.23-.23-.52-.65-.8-1.11.46-.09.84-.21,1.48-.53Zm-.45-6.53c.08-.13.14-.15.27-.09.7.28,1.45.68,2.04,1.21.07.04.09.1.09.14s-.01.09-.04.14c-.15.27-.37.62-.55.81-.03.06-.08.07-.11.07-.05,0-.11-.03-.16-.08-.57-.47-1.41-1.02-2.11-1.34.18-.28.39-.59.58-.87Zm4.98-.34c.05-.04.1-.03.16.02.34.26.73.7,1.03,1.16.04.06.04.12-.03.17l-.46.34c-.08.05-.13.04-.18-.03-.33-.5-.67-.91-1.1-1.26l.58-.4Zm.97-.71c.07-.04.1-.03.16.02.4.3.79.74,1.03,1.12.04.06.05.13-.03.2l-.44.34c-.09.07-.14.03-.18-.03-.29-.47-.64-.88-1.09-1.25l.54-.39Z"/>
    </g>
    <g class="cls-4">
      <path class="cls-2" d="m33.02,52.43c-.71,0-1.42.01-1.96.05-.11,0-.14-.07-.16-.21-.04-.25-.06-.62-.1-1.2.78.05,1.57.06,2.25.06h3.96c1.21,0,1.95-.03,2.45-.05.14,0,.17.05.17.2.02.3.02.64,0,.95,0,.16-.02.23-.16.23-.52-.02-1.64-.03-2.38-.03h-4.07Zm1-4.62c-.69,0-1.16.02-1.66.04-.11,0-.14-.07-.15-.23-.05-.34-.06-.71-.06-1.15.68.05,1.2.07,1.85.07h2.15c.84,0,1.49-.03,1.96-.06.09,0,.12.06.12.18.02.32.02.65,0,.97-.01.15-.03.21-.14.21-.51-.02-1.21-.03-1.9-.03h-2.15Z"/>
    </g>
    <g class="cls-4">
      <path class="cls-2" d="m42.87,46.86c-.62,0-1.28.04-1.93.09-.13.01-.17-.06-.2-.16-.09-.3-.15-.85-.2-1.18.74.06,1.34.08,2.21.08h4.67c.46,0,.64-.02.75-.06.05-.02.15-.08.21-.08.09,0,.17.06.25.15.24.21.45.44.65.69.05.06.09.13.09.2,0,.09-.05.16-.15.23-.12.09-.21.2-.29.32-.51.77-1.18,1.52-1.91,2.1-.06.07-.14.1-.23.1s-.18-.04-.26-.11c-.27-.22-.54-.34-.9-.45.87-.65,1.4-1.12,1.95-1.9h-4.7Zm.61,4.24c.41-.77.53-1.51.53-2.57,0-.4-.02-.65-.11-1.02.53.06,1.1.13,1.4.21.14.03.18.11.18.21,0,.07-.02.13-.05.2-.08.15-.09.26-.1.45-.03,1.05-.14,2.02-.64,2.99-.42.81-1.08,1.59-1.98,2.16-.1.07-.2.11-.3.11-.08,0-.15-.03-.22-.1-.26-.23-.58-.4-.99-.55,1.18-.62,1.81-1.21,2.27-2.08Z"/>
    </g>
    <g class="cls-4">
      <path class="cls-2" d="m56.61,46.86c-.25,1.85-.71,3.55-1.36,4.69-.47.82-1.03,1.25-1.85,1.25-.96,0-1.92-1.02-1.92-2.79,0-1.04.45-2.04,1.23-2.83.91-.91,2.07-1.39,3.53-1.39,2.61,0,4.14,1.61,4.14,3.77,0,2.02-1.14,3.29-3.35,3.96-.23.06-.33.02-.47-.2-.12-.18-.35-.44-.76-.69,1.84-.44,3.28-1.2,3.28-3.25,0-1.29-.98-2.52-2.44-2.52h-.04Zm-3.12,1.05c-.52.59-.85,1.32-.85,2.01,0,1,.4,1.56.74,1.56.28,0,.52-.14.81-.66.48-.88.97-2.45,1.15-3.89-.76.15-1.37.46-1.86.99Z"/>
    </g>
    <g class="cls-4">
      <path class="cls-2" d="m67.25,45.96c.39,0,.59-.01.75-.1.04-.03.08-.04.12-.04.06,0,.12.04.18.09.25.2.5.48.71.76.03.06.05.1.05.14,0,.07-.04.14-.14.22-.14.12-.28.28-.4.48-.45.76-.87,1.37-1.39,2.03,1.04.77,2.01,1.62,3.01,2.63.05.05.09.11.09.15s-.02.1-.08.16c-.21.25-.46.51-.73.74-.04.04-.09.06-.13.06-.05,0-.1-.03-.15-.09-.91-1.07-1.85-1.92-2.83-2.7-1.23,1.28-2.47,2.21-3.65,2.87-.1.04-.17.09-.25.09-.06,0-.13-.03-.18-.1-.24-.29-.55-.51-.91-.71,1.7-.86,2.71-1.63,3.83-2.77.78-.82,1.38-1.59,2.04-2.73h-2.81c-.57.01-1.13.03-1.72.08-.09.01-.12-.07-.14-.18-.05-.23-.1-.75-.1-1.13.59.04,1.13.04,1.84.04h2.99Z"/>
    </g>
    <g class="cls-4">
      <path class="cls-2" d="m74.63,46.33c-.11-.54-.23-.93-.43-1.36.47-.03.95-.07,1.41-.03.14.01.22.05.22.16,0,.12-.07.31.02.78l.16.91.89-.15c.62-.11,1.38-.24,1.95-.39.05,0,.1.04.12.12.09.28.15.57.22.93,0,.08-.05.11-.16.12-.5.09-1.27.21-1.82.3l-.96.17.27,1.39,1.58-.27c.77-.13,1.3-.25,1.71-.36.14-.03.17.01.18.12.08.27.14.54.18.87,0,.1-.06.17-.16.18-.33.04-.98.15-1.75.28l-1.5.26.25,1.21c.15.73.34,1.42.48,1.97.01.05-.04.09-.14.12-.23.08-.7.18-.99.23-.14.01-.21-.04-.22-.13-.08-.4-.2-1.16-.35-1.86l-.27-1.28-1.48.26c-.74.13-1.35.26-1.76.37-.12.04-.21.01-.25-.12-.11-.32-.22-.73-.3-1.08.66-.08,1.24-.16,2.02-.29l1.52-.25-.27-1.4-1.02.16c-.6.1-1.33.25-1.62.33-.11.03-.16,0-.21-.11-.1-.25-.24-.78-.3-1.09.59-.04,1.19-.12,1.94-.24l.99-.15-.14-.7Z"/>
    </g>
    <g class="cls-4">
      <path class="cls-2" d="m85.36,46.63c.18.06.21.18.14.34-.12.24-.13.48-.13.74-.02,1.36-.23,2.39-.59,3.2-.28.66-.76,1.37-1.54,2.04-.11.09-.2.14-.28.14-.06,0-.13-.03-.21-.09-.27-.18-.53-.32-.92-.46.85-.64,1.42-1.3,1.81-2.16.3-.74.45-1.34.46-3.08,0-.41-.02-.59-.11-.91.62.08,1.12.15,1.38.24Zm2.41,4.6c.53-.28,1.03-.62,1.54-1.01.65-.5,1.29-1.08,1.9-1.85.04.38.15.74.34,1.1.03.08.07.13.07.18,0,.08-.04.15-.16.27-.54.55-1.04,1-1.61,1.42-.57.43-1.18.86-1.94,1.3-.2.13-.22.15-.32.23-.06.05-.14.09-.22.09-.06,0-.14-.03-.23-.09-.24-.16-.49-.45-.65-.66-.06-.1-.1-.16-.1-.23,0-.05.01-.1.04-.16.08-.14.07-.27.07-.83v-3.4c0-.95,0-1.39-.11-1.89.44.06,1.03.13,1.36.23.14.03.2.1.2.18,0,.07-.03.16-.09.27-.1.21-.1.42-.1,1.21v3.63Z"/>
    </g>
    <g class="cls-4">
      <path class="cls-2" d="m97.94,51.96c0,.12-.06.17-.21.2-.14.02-.47.06-.77.06-.1,0-.14-.07-.14-.17,0-.39,0-.93.01-1.33-.97.5-1.32.92-1.32,1.45,0,.46.37.75,1.51.75,1,0,1.87-.1,2.71-.22.1-.01.14.02.15.12.05.25.1.63.1.89.01.13-.03.21-.12.21-.93.12-1.64.14-2.7.14-1.78,0-2.73-.53-2.73-1.79,0-1.04.65-1.81,2.29-2.65-.03-.55-.16-.77-.65-.75-.51.02-1,.35-1.5.78-.47.46-.74.77-1.09,1.19-.05.06-.09.1-.13.1-.03,0-.08-.03-.12-.08-.15-.15-.48-.49-.62-.72-.03-.04-.04-.08-.04-.1,0-.04.02-.08.08-.12.84-.75,1.64-1.61,2.27-2.7-.51.02-1.1.03-1.74.03-.1,0-.13-.06-.15-.17-.03-.17-.08-.58-.11-.9.83.04,1.67.03,2.5-.01.12-.29.22-.55.33-.93.04-.18.08-.37.08-.66.48.08.96.2,1.24.3.09.03.13.11.13.18,0,.05-.02.12-.08.16-.07.05-.13.15-.18.26-.07.15-.12.29-.25.59.66-.08,1.33-.18,1.98-.34.12-.02.15.01.17.11.05.22.1.47.11.78.01.11-.03.15-.18.17-.82.12-1.75.24-2.54.33-.25.4-.49.8-.81,1.21v.02c.36-.23.8-.34,1.1-.34.72,0,1.22.33,1.33,1.17.42-.2,1.04-.48,1.6-.76.21-.11.55-.3.83-.59.36.38.64.76.76.96.06.1.09.17.09.24,0,.09-.05.13-.16.15-.23.03-.45.09-.66.16-.71.25-1.41.49-2.34.87v1.75Z"/>
    </g>
    <g class="cls-4">
      <path class="cls-2" d="m109.32,52.69c0,.25.05.33.2.36.14.04.42.05.85.05.39,0,.81-.04.94-.14.17-.13.26-.42.27-1.15.22.14.51.28.79.38q.27.1.24.37c-.07.76-.21,1.04-.51,1.26-.3.24-.98.33-1.82.33s-1.33-.03-1.64-.15c-.25-.11-.45-.28-.45-.77v-2.25h-.98c-.31,1.84-1.46,2.96-3.34,3.35-.11.02-.17.03-.23.03-.11,0-.14-.05-.25-.27-.14-.27-.33-.52-.53-.71,1.92-.24,2.94-1.04,3.15-2.4h-.02c-1.05,0-1.4.02-1.47.02-.12,0-.13-.01-.13-.12,0-.08.02-.48.02-1.33v-3.25c0-.87-.02-1.27-.02-1.35,0-.11.01-.12.13-.12.06,0,.43.02,1.49.02h3.5c1.04,0,1.41-.02,1.49-.02.11,0,.12.01.12.12,0,.08-.02.48-.02,1.35v3.25c0,.85.02,1.26.02,1.33,0,.11-.01.12-.12.12-.08,0-.45-.02-1.49-.02h-.2v1.72Zm-3.78-6.85v.79h4.44v-.79h-4.44Zm4.44,2.48v-.77h-4.44v.77h4.44Zm0,.91h-4.44v.8h4.44v-.8Z"/>
    </g>
    <g class="cls-4">
      <path class="cls-2" d="m116.34,47.75c.84-.13,1.45-.25,1.89-.35.18-.05.29-.09.43-.17.1-.05.14-.08.24-.08.07,0,.1.02.18.08.2.12.45.33.64.58.08.08.12.18.12.25,0,.1-.07.18-.2.25-.15.08-.23.15-.35.25-.8.76-1.25,1.22-1.98,2,.14-.04.28-.05.39-.05.51,0,1,.33,1.18,1.1.22.89.39,1.06,1.2,1.06.64,0,1.15-.08,1.68-.2.12-.02.17.04.2.16.04.23.08.6.08.96,0,.11-.05.15-.2.17-.48.09-1.08.14-1.6.14-1.6,0-2.12-.42-2.35-1.5-.17-.74-.3-1.04-.69-1.04-.28,0-.62.15-1.02.54-.49.5-1.28,1.46-1.65,1.91-.03.04-.09.08-.15.08-.03,0-.08-.01-.12-.04-.28-.2-.57-.47-.76-.66-.03-.03-.05-.08-.05-.11,0-.05.03-.12.09-.17.7-.71,1.36-1.38,2.05-2.09.42-.44.99-1.07,2.15-2.32-.82.22-1.54.39-2.26.58-.34.1-.5.15-.59.2s-.15.07-.23.07-.13-.05-.18-.18c-.14-.27-.27-.67-.43-1.22.93,0,1.37-.04,2.27-.18Zm3.03-2.33c.11.02.15.09.12.24-.07.26-.2.67-.29.89-.03.09-.1.14-.18.12-.96-.18-2.23-.57-3.03-.91-.06-.02-.13-.08-.1-.2.06-.25.21-.61.37-1.01,1.09.4,2.08.66,3.12.87Z"/>
    </g>
    <g class="cls-4">
      <path class="cls-2" d="m126.14,48.97c.61-.35,1.12-.49,1.73-.49,1.59,0,2.7,1.04,2.7,2.61,0,1.82-1.47,2.98-3.79,2.98-1.37,0-2.2-.59-2.2-1.6,0-.73.68-1.33,1.53-1.33,1.02,0,1.77.54,2.04,1.59.76-.35,1.11-.83,1.11-1.65,0-.99-.7-1.64-1.71-1.64-.9,0-1.9.4-2.78,1.15-.32.28-.62.6-.95.92-.08.08-.13.12-.18.12-.04,0-.1-.03-.16-.1-.23-.2-.47-.48-.64-.71-.06-.09-.03-.16.05-.25.85-.68,1.6-1.38,2.58-2.4.67-.7,1.18-1.24,1.68-1.86-.65.12-1.42.27-2.1.41-.14.03-.28.06-.46.13-.05.02-.16.06-.22.06-.11,0-.18-.06-.24-.18-.13-.25-.23-.55-.38-1.18.33.04.69.04,1.01.02.66-.07,1.62-.21,2.47-.37.27-.05.49-.11.6-.16.05-.03.15-.09.21-.09.11,0,.17.03.25.09.33.25.54.47.73.7.09.1.12.17.12.26,0,.11-.06.21-.18.26-.18.09-.27.16-.48.35-.79.77-1.52,1.53-2.35,2.33v.03Zm.01,3.1c-.32,0-.52.18-.52.41,0,.34.29.57.95.57.2,0,.34-.01.5-.04-.14-.6-.47-.93-.92-.93Z"/>
    </g>
    <g class="cls-4">
      <path class="cls-2" d="m134.39,50.14c0-.41.01-.91.02-1.39-.33.42-.65.82-.97,1.13-.11.1-.17.16-.24.16s-.11-.08-.16-.24c-.09-.29-.26-.64-.41-.89,1.15-1.03,1.97-2.21,2.51-3.68.1-.25.17-.51.22-.76.42.11.71.21,1.05.35.14.06.18.09.18.16s-.03.13-.1.18c-.09.06-.15.18-.27.47-.2.47-.42.95-.69,1.4v5.56c0,1.05.02,1.59.02,1.65,0,.1-.01.11-.12.11h-.95c-.12,0-.13-.01-.13-.11,0-.08.02-.6.02-1.65v-2.46Zm4.14,2.22c0,.39.06.53.3.62.2.07.48.08,1.08.08.55,0,.88-.06,1.12-.27.18-.15.28-.62.33-1.65.23.17.54.34.84.45.27.1.26.1.24.38-.08,1.07-.26,1.53-.63,1.81-.36.25-1.01.37-1.97.37-1.02,0-1.54-.04-1.89-.22-.36-.17-.58-.46-.58-1.18v-6.86c0-.61-.01-.92-.07-1.26.44.01.78.03,1.16.08.14.01.21.06.21.14s-.03.14-.07.21c-.05.1-.08.27-.08.74v2.72c.7-.43,1.34-.95,2.01-1.6.22-.2.47-.48.64-.74.29.22.61.49.85.72.09.09.12.14.12.22s-.08.14-.18.17c-.12.04-.33.2-.57.41-.81.72-1.76,1.45-2.87,2.11v2.58Z"/>
    </g>
  </g>
</svg>