<svg width="64" height="64" viewBox="0 0 64 64" fill="none" xmlns="http://www.w3.org/2000/svg">
<path fill-rule="evenodd" clip-rule="evenodd" d="M32.0261 0C14.593 0 0.5 14.1969 0.5 31.7603C0.5 45.7997 9.52985 57.6838 22.0566 61.8899C23.6228 62.2061 24.1965 61.2065 24.1965 60.3657C24.1965 59.6294 24.1449 57.1056 24.1449 54.4759C15.3751 56.3693 13.5489 50.6899 13.5489 50.6899C12.1395 47.009 10.0513 46.063 10.0513 46.063C7.18091 44.1174 10.2603 44.1174 10.2603 44.1174C13.4443 44.3278 15.115 47.3775 15.115 47.3775C17.9331 52.2148 22.4742 50.848 24.301 50.0065C24.5617 47.9557 25.3974 46.536 26.2847 45.7475C19.2902 45.0112 11.9311 42.277 11.9311 30.0773C11.9311 26.6069 13.183 23.7675 15.1666 21.5592C14.8537 20.7707 13.7573 17.5099 15.4803 13.1456C15.4803 13.1456 18.1422 12.3042 24.1442 16.4058C26.7139 15.7105 29.364 15.3569 32.0261 15.3539C34.688 15.3539 37.4015 15.7224 39.9073 16.4058C45.91 12.3042 48.5719 13.1456 48.5719 13.1456C50.2948 17.5099 49.1978 20.7707 48.8848 21.5592C50.9208 23.7675 52.1211 26.6069 52.1211 30.0773C52.1211 42.277 44.7619 44.9582 37.7151 45.7475C38.8638 46.7464 39.855 48.6391 39.855 51.6366C39.855 55.8956 39.8034 59.3138 39.8034 60.3651C39.8034 61.2065 40.3777 62.2061 41.9432 61.8906C54.47 57.6831 63.4999 45.7997 63.4999 31.7603C63.5515 14.1969 49.4069 0 32.0261 0Z" fill="#97ACAC"/>
</svg>
