<svg width="64" height="64" viewBox="0 0 64 64" fill="none" xmlns="http://www.w3.org/2000/svg">
<path d="M52.6764 21.5189C52.7081 21.9773 52.7081 22.4357 52.7081 22.8983C52.7081 36.9953 41.9764 53.2533 22.3531 53.2533V53.2449C16.5563 53.2533 10.88 51.5929 6 48.4621C6.8429 48.5635 7.69003 48.6142 8.53926 48.6163C13.3432 48.6205 18.0097 47.0087 21.7891 44.0406C17.2239 43.954 13.2206 40.9774 11.8221 36.6319C13.4213 36.9403 15.0691 36.877 16.6387 36.4481C11.6616 35.4426 8.08085 31.0696 8.08085 25.9911C8.08085 25.9446 8.08085 25.9003 8.08085 25.8559C9.56384 26.6819 11.2243 27.1403 12.9228 27.191C8.23506 24.0581 6.79009 17.8219 9.62088 12.9462C15.0374 19.6112 23.0291 23.6631 31.6081 24.0919C30.7483 20.3865 31.9229 16.5037 34.6945 13.8989C38.9914 9.85979 45.7494 10.0668 49.7886 14.3616C52.1779 13.8905 54.4678 13.0138 56.5635 11.7716C55.7671 14.2412 54.1003 16.3389 51.8737 17.6719C53.9883 17.4227 56.0544 16.8565 58 15.9925C56.5677 18.1388 54.7636 20.0084 52.6764 21.5189Z" fill="#97ACAC"/>
</svg>
