<svg width="16" height="21" viewBox="0 0 16 21" fill="none" xmlns="http://www.w3.org/2000/svg">
<path d="M5.83264 11.8901H10.8326" stroke="#97ACAC" stroke-width="1.67287" stroke-linecap="square"/>
<path d="M8.33264 9.38965L8.33264 14.3896" stroke="#97ACAC" stroke-width="1.67287" stroke-linecap="square"/>
<mask id="path-3-inside-1_1612_17072" fill="white">
<path fill-rule="evenodd" clip-rule="evenodd" d="M10.842 0.111816H2.50551C1.58161 0.111816 0.832642 0.860782 0.832642 1.78468V18.5133C0.832642 19.4372 1.58161 20.1862 2.50551 20.1862H14.2156C15.1395 20.1862 15.8884 19.4372 15.8884 18.5133V5.15826L14.3829 3.65272V17.6769C14.3829 18.1388 14.0084 18.5133 13.5465 18.5133H3.17469C2.71274 18.5133 2.33826 18.1388 2.33826 17.6769V2.62111C2.33826 2.15917 2.71274 1.78468 3.17469 1.78468H12.5149L10.842 0.111816Z"/>
</mask>
<path fill-rule="evenodd" clip-rule="evenodd" d="M10.842 0.111816H2.50551C1.58161 0.111816 0.832642 0.860782 0.832642 1.78468V18.5133C0.832642 19.4372 1.58161 20.1862 2.50551 20.1862H14.2156C15.1395 20.1862 15.8884 19.4372 15.8884 18.5133V5.15826L14.3829 3.65272V17.6769C14.3829 18.1388 14.0084 18.5133 13.5465 18.5133H3.17469C2.71274 18.5133 2.33826 18.1388 2.33826 17.6769V2.62111C2.33826 2.15917 2.71274 1.78468 3.17469 1.78468H12.5149L10.842 0.111816Z" fill="white"/>
<path d="M10.842 0.111816L12.0249 -1.07108L11.5349 -1.56105H10.842V0.111816ZM15.8884 5.15826H17.5613V4.46533L17.0713 3.97536L15.8884 5.15826ZM14.3829 3.65272L15.5658 2.46983L12.71 -0.385935V3.65272H14.3829ZM12.5149 1.78468V3.45755H16.5535L13.6977 0.601787L12.5149 1.78468ZM10.842 -1.56105H2.50551V1.78468H10.842V-1.56105ZM2.50551 -1.56105C0.657713 -1.56105 -0.840224 -0.063118 -0.840224 1.78468H2.50551V1.78468V-1.56105ZM-0.840224 1.78468V18.5133H2.50551V1.78468H-0.840224ZM-0.840224 18.5133C-0.840224 20.3611 0.65771 21.8591 2.50551 21.8591V18.5133H2.50551H-0.840224ZM2.50551 21.8591H14.2156V18.5133H2.50551V21.8591ZM14.2156 21.8591C16.0634 21.8591 17.5613 20.3611 17.5613 18.5133H14.2156V18.5133V21.8591ZM17.5613 18.5133V5.15826H14.2156V18.5133H17.5613ZM17.0713 3.97536L15.5658 2.46983L13.2 4.83561L14.7055 6.34115L17.0713 3.97536ZM16.0558 17.6769V3.65272H12.71V17.6769H16.0558ZM13.5465 20.1862C14.9323 20.1862 16.0558 19.0627 16.0558 17.6769H12.71C12.71 17.215 13.0845 16.8405 13.5465 16.8405V20.1862ZM3.17469 20.1862H13.5465V16.8405H3.17469V20.1862ZM0.665396 17.6769C0.665396 19.0627 1.78885 20.1862 3.17469 20.1862V16.8405C3.63664 16.8405 4.01113 17.2149 4.01113 17.6769H0.665396ZM0.665396 2.62111V17.6769H4.01113V2.62111H0.665396ZM3.17469 0.111816C1.78885 0.111816 0.665396 1.23527 0.665396 2.62111H4.01113C4.01113 3.08306 3.63664 3.45755 3.17469 3.45755V0.111816ZM12.5149 0.111816H3.17469V3.45755H12.5149V0.111816ZM13.6977 0.601787L12.0249 -1.07108L9.65909 1.29471L11.332 2.96758L13.6977 0.601787Z" fill="#97ACAC" mask="url(#path-3-inside-1_1612_17072)"/>
<mask id="path-5-inside-2_1612_17072" fill="white">
<path fill-rule="evenodd" clip-rule="evenodd" d="M10.8257 0.111816H10.4638C10.1866 0.111816 9.96191 0.336507 9.96191 0.613676V5.46445C9.96191 5.74162 10.1866 5.96631 10.4638 5.96631H15.3145C15.5917 5.96631 15.8164 5.74162 15.8164 5.46445V5.10253L10.8257 0.111816Z"/>
</mask>
<path fill-rule="evenodd" clip-rule="evenodd" d="M10.8257 0.111816H10.4638C10.1866 0.111816 9.96191 0.336507 9.96191 0.613676V5.46445C9.96191 5.74162 10.1866 5.96631 10.4638 5.96631H15.3145C15.5917 5.96631 15.8164 5.74162 15.8164 5.46445V5.10253L10.8257 0.111816Z" fill="white"/>
<path d="M10.8257 0.111816L12.0086 -1.07108L11.5186 -1.56105H10.8257V0.111816ZM15.8164 5.10253H17.4893V4.40961L16.9993 3.91964L15.8164 5.10253ZM10.4638 1.78468H10.8257V-1.56105H10.4638V1.78468ZM11.6348 0.613676C11.6348 1.2604 11.1105 1.78468 10.4638 1.78468V-1.56105C9.26271 -1.56105 8.28905 -0.587391 8.28905 0.613676H11.6348ZM11.6348 5.46445V0.613676H8.28905V5.46445H11.6348ZM10.4638 4.29344C11.1105 4.29344 11.6348 4.81772 11.6348 5.46445H8.28905C8.28905 6.66552 9.26271 7.63917 10.4638 7.63917V4.29344ZM15.3145 4.29344H10.4638V7.63917H15.3145V4.29344ZM14.1435 5.46445C14.1435 4.81772 14.6678 4.29344 15.3145 4.29344V7.63917C16.5156 7.63917 17.4893 6.66551 17.4893 5.46445H14.1435ZM14.1435 5.10253V5.46445H17.4893V5.10253H14.1435ZM16.9993 3.91964L12.0086 -1.07108L9.64279 1.29471L14.6335 6.28543L16.9993 3.91964Z" fill="#97ACAC" mask="url(#path-5-inside-2_1612_17072)"/>
</svg>
