<svg width="24" height="24" viewBox="0 0 24 24" fill="none" xmlns="http://www.w3.org/2000/svg">
<path d="M12.2 3C9.7187 3 7.7 5.0187 7.7 7.5V9.3H6.8C5.8073 9.3 5 10.1073 5 11.1V19.2C5 20.1927 5.8073 21 6.8 21H17.6C18.5927 21 19.4 20.1927 19.4 19.2V11.1C19.4 10.1073 18.5927 9.3 17.6 9.3H16.7V7.5C16.7 5.0187 14.6813 3 12.2 3ZM9.5 7.5C9.5 6.0114 10.7114 4.8 12.2 4.8C13.6886 4.8 14.9 6.0114 14.9 7.5V9.3H9.5V7.5ZM17.6018 19.2H13.1V17.1498C13.6355 16.8375 14 16.2633 14 15.6C14 14.6073 13.1927 13.8 12.2 13.8C11.2073 13.8 10.4 14.6073 10.4 15.6C10.4 16.2624 10.7645 16.8375 11.3 17.1498V19.2H6.8V11.1H17.6L17.6018 19.2Z" fill="#7F7F7F"/>
</svg>
