<svg width="23" height="23" viewBox="0 0 23 23" fill="none" xmlns="http://www.w3.org/2000/svg">
<circle cx="11.5" cy="11.5" r="11.5" fill="#0EA895"/>
<path fill-rule="evenodd" clip-rule="evenodd" d="M10.2779 18.2969C10.7434 18.4364 11.237 18.5113 11.7489 18.5113C12.2355 18.5113 12.7066 18.4434 13.1523 18.3166C13.1875 18.4687 13.2606 18.6112 13.3675 18.7289C13.5405 18.919 13.7865 19.0274 14.0439 19.0274H14.4419C13.6262 19.4177 12.7122 19.6363 11.7489 19.6363C10.7294 19.6363 9.76468 19.3914 8.91389 18.9571H9.45389C9.69155 18.9571 9.91796 18.8571 10.0783 18.6816C10.1781 18.5718 10.247 18.4389 10.2779 18.2969ZM15.9536 14.8184C15.3531 14.5391 14.9369 13.9302 14.9369 13.2248C14.9369 12.2553 15.7229 11.4684 16.6933 11.4684C17.6622 11.4684 18.4497 12.2553 18.4497 13.2248C18.4497 13.9302 18.032 14.5391 17.4315 14.8184C18.4342 15.2494 19.195 16.5347 19.3426 18.1134H14.0439C14.1901 16.5347 14.9523 15.2494 15.9536 14.8184ZM6.06624 14.8184C5.46577 14.5391 5.04812 13.9302 5.04812 13.2248C5.04812 12.2553 5.83561 11.4684 6.80452 11.4684C7.77483 11.4684 8.56092 12.2553 8.56092 13.2248C8.56092 13.9302 8.14468 14.5391 7.54421 14.8184C8.54546 15.2494 9.30764 16.5347 9.45389 18.1134H4.15515C4.30281 16.5347 5.06358 15.2494 6.06624 14.8184ZM6.09156 10.7238C6.61468 9.61535 7.45421 8.68497 8.49202 8.0492C8.34155 8.49302 8.23749 8.9755 8.18967 9.48583C8.18264 9.55572 8.18405 9.62547 8.1939 9.69382C7.88593 9.9904 7.61452 10.3251 7.38812 10.6904C7.20109 10.6473 7.00561 10.6246 6.80452 10.6246C6.55702 10.6246 6.31797 10.6592 6.09156 10.7238ZM15.0058 8.0492C16.0169 8.66866 16.8409 9.56824 17.3655 10.6398C17.1503 10.584 16.9253 10.5543 16.6933 10.5543C16.4781 10.5543 16.27 10.5796 16.0703 10.6274C15.8523 10.2866 15.595 9.97324 15.3039 9.69382C15.3137 9.62547 15.3151 9.55572 15.3081 9.48583C15.2617 8.9755 15.1562 8.49302 15.0058 8.0492ZM11.0092 6.27577C10.4087 5.99648 9.99249 5.38772 9.99249 4.6822C9.99249 3.71286 10.78 2.92578 11.7489 2.92578C12.7178 2.92578 13.5053 3.71286 13.5053 4.6822C13.5053 5.38772 13.0891 5.99648 12.4886 6.27577C13.4898 6.70693 14.2506 7.99211 14.3983 9.57091H9.09951C9.24717 7.99211 10.008 6.70693 11.0092 6.27577Z" fill="white"/>
</svg>
