<svg width="23" height="23" viewBox="0 0 23 23" fill="none" xmlns="http://www.w3.org/2000/svg">
<circle cx="11.5" cy="11.5" r="11.5" fill="#0EA895"/>
<path fill-rule="evenodd" clip-rule="evenodd" d="M15.1736 12.9492L14.7114 12.5914C14.5002 12.4274 14.2 12.4463 14.0101 12.6355L13.2929 13.3535C13.103 13.5428 13.0844 13.8433 13.2491 14.0548L13.6064 14.5161L13.0273 14.5893C12.7617 14.6228 12.5625 14.8487 12.5625 15.1163V16.1318C12.5625 16.3994 12.7617 16.6253 13.0273 16.6588L13.6064 16.732L13.2491 17.1934C13.0844 17.4048 13.103 17.7054 13.2929 17.8946L14.0101 18.6126C14.2 18.8019 14.5002 18.8207 14.7114 18.6567L15.1736 18.2989L15.2466 18.8781C15.2798 19.1437 15.5056 19.3428 15.7739 19.3428H16.7885C17.0568 19.3428 17.2826 19.1437 17.3158 18.8781L17.3889 18.2989L17.851 18.6567C18.0622 18.8207 18.3624 18.8019 18.5523 18.6126L19.2695 17.8946C19.4594 17.7054 19.478 17.4048 19.3133 17.1934L18.956 16.732L19.5351 16.6588C19.8007 16.6253 19.9999 16.3994 19.9999 16.1318V15.1163C19.9999 14.8487 19.8007 14.6228 19.5351 14.5893L18.956 14.5161L19.3133 14.0548C19.478 13.8433 19.4594 13.5428 19.2695 13.3535L18.5523 12.6355C18.3624 12.4463 18.0622 12.4274 17.851 12.5914L17.3889 12.9492L17.3158 12.37C17.2826 12.1044 17.0568 11.9053 16.7885 11.9053H15.7739C15.5056 11.9053 15.2798 12.1044 15.2466 12.37L15.1736 12.9492ZM16.2812 14.8272C16.7208 14.8272 17.0781 15.1843 17.0781 15.6241C17.0781 16.0638 16.7208 16.4209 16.2812 16.4209C15.8416 16.4209 15.4843 16.0638 15.4843 15.6241C15.4843 15.1843 15.8416 14.8272 16.2812 14.8272ZM11.8373 14.6856H3C3 12.8659 3.88851 11.328 5.10241 10.8421C4.40249 10.5283 3.91375 9.82493 3.91375 9.0084C3.91375 7.89994 4.81421 7 5.9232 7C7.03085 7 7.93131 7.89994 7.93131 9.0084C7.93131 9.82493 7.44257 10.5283 6.74265 10.8421C7.67765 11.2163 8.42006 12.2142 8.71092 13.4845C9.00311 12.2142 9.74419 11.2163 10.6805 10.8421C9.97927 10.5283 9.49186 9.82493 9.49186 9.0084C9.49186 7.89994 10.391 7 11.5 7C12.609 7 13.5081 7.89994 13.5081 9.0084C13.5081 9.82493 13.0207 10.5283 12.3194 10.8421C12.8215 11.0427 13.2677 11.4227 13.6183 11.9278C13.5586 11.9704 13.5015 12.0185 13.447 12.072L12.7298 12.79C12.4031 13.1168 12.2783 13.5764 12.3686 14.0035C12.1215 14.1643 11.9343 14.4044 11.8373 14.6856ZM15.7646 11.1086C15.9213 11.0002 16.086 10.9107 16.2573 10.8421C15.5574 10.5283 15.0686 9.82493 15.0686 9.0084C15.0686 7.89994 15.9691 7 17.0768 7C18.1857 7 19.0862 7.89994 19.0862 9.0084C19.0862 9.82493 18.5975 10.5283 17.8975 10.8421C18.5643 11.1088 19.1327 11.6928 19.5099 12.4664L19.1154 12.072C18.7887 11.7453 18.3292 11.6216 17.9015 11.7117C17.6638 11.3459 17.2507 11.1084 16.7885 11.1084H15.7739L15.7646 11.1086Z" fill="white"/>
</svg>
