<svg width="19" height="19" viewBox="0 0 19 19" fill="none" xmlns="http://www.w3.org/2000/svg">
<mask id="mask0_2259_24283" style="mask-type:luminance" maskUnits="userSpaceOnUse" x="0" y="0" width="19" height="19">
<path d="M18.9834 0.0537109H0.983398V18.0537H18.9834V0.0537109Z" fill="white"/>
</mask>
<g mask="url(#mask0_2259_24283)">
<path fill-rule="evenodd" clip-rule="evenodd" d="M16.8728 16.2758C16.8728 15.9652 16.6211 15.7133 16.3103 15.7133H3.65411C3.34333 15.7133 3.09161 15.9652 3.09161 16.2758V17.3371C3.09161 17.6478 3.34333 17.8996 3.65411 17.8996H16.3103C16.6211 17.8996 16.8728 17.6478 16.8728 17.3371V16.2758ZM8.94581 2.40975C8.71659 2.15944 8.57597 1.82587 8.57597 1.45996C8.57597 0.683853 9.20596 0.0537109 9.98221 0.0537109C10.7585 0.0537109 11.3885 0.683853 11.3885 1.45996C11.3885 1.82587 11.2478 2.15944 11.0186 2.40975L14.208 8.74745L16.2836 6.33882C16.2105 6.16838 16.1697 5.98079 16.1697 5.78377C16.1697 5.00766 16.7997 4.37752 17.5759 4.37752C18.3522 4.37752 18.9822 5.00766 18.9822 5.78377C18.9822 6.42531 18.5519 6.96713 17.9641 7.13575L17.0359 14.5809C17.0008 14.8624 16.7617 15.0738 16.4777 15.0738H3.48675C3.20269 15.0738 2.96363 14.8624 2.92848 14.5809L2.00036 7.13575C1.41255 6.96713 0.982239 6.42531 0.982239 5.78377C0.982239 5.00766 1.61224 4.37752 2.38848 4.37752C3.16473 4.37752 3.79473 5.00766 3.79473 5.78377C3.79473 5.98079 3.75394 6.16838 3.68082 6.33882L5.75644 8.74745L8.94581 2.40975ZM9.98221 8.69542L11.9313 9.82043V12.0704L9.98221 13.1954L8.03316 12.0704V9.82043L9.98221 8.69542Z" fill="#D68C47"/>
</g>
</svg>
