<svg width="23" height="23" viewBox="0 0 23 23" fill="none" xmlns="http://www.w3.org/2000/svg">
<circle cx="11.5" cy="11.5" r="11.5" fill="#0EA895"/>
<path d="M9 11C10.3813 11 11.5 9.88125 11.5 8.5C11.5 7.11875 10.3813 6 9 6C7.61875 6 6.5 7.11875 6.5 8.5C6.5 9.88125 7.61875 11 9 11ZM9 12.25C7.33125 12.25 4 13.0875 4 14.75V16H14V14.75C14 13.0875 10.6688 12.25 9 12.25Z" fill="white"/>
<path d="M15 8.45116L17.1818 7.16161L19.3636 8.45116L19.3636 10.5225L17.1818 11.8334L15 10.5225V8.45116Z" stroke="white" stroke-width="2"/>
<rect x="14.875" y="7.75024" width="4.375" height="3.5" fill="white"/>
</svg>
