<svg width="23" height="23" viewBox="0 0 23 23" fill="none" xmlns="http://www.w3.org/2000/svg">
<rect width="23" height="22.9999" rx="11.5" fill="#0EA895"/>
<mask id="mask0_2178_27128" style="mask-type:luminance" maskUnits="userSpaceOnUse" x="3" y="3" width="16" height="16">
<path d="M19 3H3V19H19V3Z" fill="white"/>
</mask>
<g mask="url(#mask0_2178_27128)">
<path fill-rule="evenodd" clip-rule="evenodd" d="M14.1542 14.8626L18.1455 18.8536C18.3405 19.0487 18.658 19.0487 18.853 18.8536C19.048 18.6585 19.048 18.3417 18.853 18.1466L14.8617 14.1556C15.8817 12.9726 16.4992 11.4328 16.4992 9.75004C16.4992 6.02464 13.4742 3 9.74925 3C6.02426 3 2.99927 6.02464 2.99927 9.75004C2.99927 13.4754 6.02426 16.5001 9.74925 16.5001C11.4317 16.5001 12.9717 15.8829 14.1542 14.8626ZM15.4992 9.75004C15.4992 10.8833 14.9792 12.1708 15.118 11.8127C14.8692 11.4349 14.5467 11.151 14.1805 11.0048C14.6655 10.7874 15.0042 10.3002 15.0042 9.73454C15.0042 8.96666 14.3805 8.34328 13.613 8.34328C12.8455 8.34328 12.2217 8.96666 12.2217 9.73454C12.2217 10.3002 12.5592 10.7874 13.0442 11.0048C12.4005 11.2623 11.8892 11.9464 11.6855 12.8182L11.6767 12.8181C11.473 11.9464 10.9605 11.2623 10.3168 11.0048C10.8017 10.7874 11.1405 10.3002 11.1405 9.73454C11.1405 8.96666 10.5167 8.34328 9.74925 8.34328C8.98175 8.34328 8.358 8.96666 8.358 9.73454C8.358 10.3002 8.69675 10.7874 9.18174 11.0048C8.54175 11.2607 8.033 11.9373 7.8255 12.8007H7.80925C7.60175 11.9373 7.09301 11.2607 6.45426 11.0048C6.93926 10.7874 7.27675 10.3002 7.27675 9.73454C7.27675 8.96666 6.653 8.34328 5.8855 8.34328C5.11801 8.34328 4.49426 8.96666 4.49426 9.73454C4.49426 10.3002 4.83302 10.7874 5.31802 11.0048C4.95177 11.151 4.62927 11.4349 4.38052 11.8127C4.51302 12.1544 3.99926 10.8648 3.99926 9.75004C3.99926 6.57652 6.57551 4.00001 9.74925 4.00001C12.923 4.00001 15.4992 6.57652 15.4992 9.75004Z" fill="white"/>
</g>
</svg>
