<svg width="25" height="32" viewBox="0 0 25 32" fill="none" xmlns="http://www.w3.org/2000/svg">
<path d="M24.1034 25.1347C23.3181 23.9586 22.1248 23.3076 21.0037 22.8853C20.4416 22.6736 19.8916 22.5176 19.4074 22.3853C18.9241 22.2535 18.5037 22.1427 18.2212 22.0366C17.7273 21.8528 17.2052 21.6149 16.8411 21.3594C16.6593 21.2322 16.5189 21.1019 16.4378 20.9902C16.3557 20.8763 16.3333 20.7976 16.3325 20.7291C16.3325 20.2537 16.3325 19.66 16.3325 18.8777C16.9644 18.1742 17.8726 17.0845 18.2456 15.3567C18.3759 15.2981 18.5049 15.2316 18.6293 15.1451C18.9383 14.9319 19.2006 14.6219 19.4228 14.2006C19.6466 13.7772 19.8446 13.2366 20.0563 12.4965C20.1634 12.1216 20.2128 11.7956 20.2128 11.5051C20.2131 11.1709 20.1443 10.8805 20.0179 10.6451C19.8498 10.3279 19.5908 10.1409 19.3598 10.0385C20.3922 4.46437 17.1326 0.219868 12.8086 0.43618C8.846 -0.444445 6.31432 -0.22457 5.984 3.29787C5.67238 3.99881 5.65257 5.04574 6.06663 6.15862C5.822 7.02687 5.752 7.81168 5.751 8.32768C5.751 8.92043 5.751 9.56931 5.751 9.97562C5.64438 10.0096 5.53138 10.0539 5.41132 10.127C5.23288 10.2367 5.05288 10.4087 4.92719 10.6451C4.80082 10.8805 4.73157 11.1709 4.732 11.5051C4.73257 11.7956 4.782 12.1216 4.88888 12.4965C5.17188 13.4817 5.42725 14.1182 5.75788 14.5852C5.92294 14.817 6.11144 15.0029 6.31613 15.1451C6.44025 15.2316 6.56925 15.298 6.69957 15.3567C7.07269 17.0844 7.98088 18.1742 8.613 18.8776C8.613 19.6599 8.613 20.2537 8.613 20.729C8.613 20.7872 8.58988 20.8716 8.49894 20.9922C8.36607 21.1708 8.09057 21.3877 7.76332 21.571C7.43707 21.7569 7.06163 21.9176 6.73313 22.0335C6.34763 22.17 5.72632 22.3126 5.03007 22.5119C3.98413 22.8147 2.74744 23.2504 1.74138 24.1129C1.239 24.5445 0.797939 25.0862 0.487939 25.7594C0.177626 26.4325 -0.000561172 27.2322 1.32776e-06 28.1674C1.32776e-06 28.3847 0.00956367 28.6093 0.0293762 28.8416C0.0435012 29.0043 0.105314 29.1361 0.177939 29.2454C0.316439 29.4493 0.500064 29.6002 0.730002 29.7551C1.13294 30.0219 1.69094 30.2825 2.40575 30.5379C4.54425 31.3006 8.085 31.9989 12.4729 32C16.0376 32 19.0467 31.5375 21.1941 30.9561C22.2686 30.6651 23.1261 30.3459 23.7461 30.0271C24.0571 29.867 24.3079 29.7084 24.5073 29.5348C24.6072 29.4468 24.6942 29.3551 24.7679 29.2454C24.8399 29.1362 24.9023 29.0044 24.9161 28.8416C24.9357 28.6099 24.945 28.3859 24.945 28.1696C24.9469 26.9222 24.6266 25.917 24.1034 25.1347ZM8.62375 22.1741C8.86838 22.0032 9.09238 21.8111 9.27032 21.5777C9.44619 21.3471 9.58107 21.0586 9.58107 20.7291C9.58107 20.2151 9.58107 19.5729 9.58107 18.6928V18.5069L9.457 18.3684C8.7965 17.633 7.90225 16.6566 7.59225 14.9211L7.54307 14.6436L7.27832 14.5493C7.10969 14.4891 6.98119 14.4272 6.86894 14.3495C6.70332 14.2326 6.55319 14.0729 6.37788 13.7464C6.20463 13.4215 6.021 12.9353 5.82013 12.2309C5.73207 11.9229 5.70063 11.6829 5.70063 11.5052C5.70113 11.2992 5.7405 11.1782 5.781 11.1015C5.842 10.9913 5.91694 10.9439 6.012 10.9058C6.10107 10.8718 6.19613 10.8661 6.21469 10.8661L6.71932 10.8981V10.3826C6.71932 10.3826 6.71932 9.28156 6.71932 8.32781C6.71857 8.11306 6.73682 7.82624 6.77857 7.50337C7.89863 9.10287 10.0227 10.6112 13.5789 11.2231C13.1386 10.4526 12.258 6.48987 12.258 6.48987C12.258 6.48987 14.6373 9.96393 18.2261 10.3286C18.2261 10.3631 18.2261 10.3826 18.2261 10.3826V10.8935L18.7278 10.8667C18.7458 10.8641 18.9151 10.8775 19.0218 10.9491C19.0774 10.9846 19.1224 11.0258 19.1637 11.1015C19.2047 11.1782 19.2438 11.2987 19.2445 11.5052C19.2445 11.6834 19.2131 11.9229 19.1251 12.2309C18.858 13.1717 18.6186 13.7186 18.3989 14.022C18.2887 14.1755 18.1883 14.2712 18.0763 14.3496C17.9643 14.4273 17.8356 14.4891 17.6672 14.5494L17.4023 14.6436L17.3533 14.9212C17.0433 16.6567 16.149 17.6331 15.4886 18.3685L15.3643 18.507V18.6929C15.3643 19.573 15.3643 20.2151 15.3643 20.7291C15.3634 21.0484 15.4875 21.3353 15.6575 21.5644C15.9155 21.91 16.2732 22.1659 16.6628 22.3895C16.8471 22.4945 17.0407 22.5887 17.2351 22.6769L15.3711 24.5359C14.6061 24.9618 13.6135 25.2281 12.5205 25.2276C11.4421 25.2281 10.4619 24.968 9.70175 24.5524L7.78907 22.6454C8.07538 22.5109 8.36213 22.3549 8.62375 22.1741ZM23.9531 28.717L23.9108 28.7664C23.8398 28.839 23.6956 28.9477 23.4932 29.063C22.7789 29.475 21.3696 29.9813 19.4776 30.3664C17.5827 30.7537 15.1948 31.0318 12.4728 31.0318C8.99301 31.0318 6.05813 30.5771 4.00463 30.0214C2.9785 29.7439 2.17156 29.439 1.64238 29.1661C1.37869 29.0306 1.18431 28.9013 1.07694 28.8066C1.03081 28.7664 1.00506 28.736 0.992189 28.7185C0.977002 28.5274 0.968502 28.3431 0.968502 28.1675C0.970314 27.0809 1.236 26.2868 1.6465 25.6641C2.26113 24.7336 3.24731 24.164 4.27807 23.7762C4.79094 23.5826 5.30982 23.4353 5.78619 23.3076C6.26357 23.1794 6.69513 23.0732 7.05457 22.9466C7.06357 22.9431 7.07388 22.9394 7.08313 22.9358L12.1011 27.9399L12.2481 28.1104L12.4953 28.3972L17.9438 22.9641C18.4148 23.1326 19.0003 23.2695 19.6415 23.457C20.6419 23.7459 21.7473 24.1522 22.5702 24.8587C22.9827 25.212 23.3288 25.6364 23.577 26.1709C23.8242 26.7054 23.9766 27.3549 23.9766 28.1696C23.9768 28.3436 23.9674 28.5269 23.9531 28.717Z" fill="white"/>
</svg>
