<svg width="20" height="20" viewBox="0 0 20 20" fill="none" xmlns="http://www.w3.org/2000/svg">
<mask id="mask0_8157_63896" style="mask-type:alpha" maskUnits="userSpaceOnUse" x="0" y="0" width="20" height="20">
<rect width="20" height="20" fill="#D9D9D9"/>
</mask>
<g mask="url(#mask0_8157_63896)">
<path d="M10.0007 7.4974L7.08399 4.58073L10.0007 1.66406L12.9173 4.58073L10.0007 7.4974ZM0.833984 16.6641V13.3307C0.833984 12.8585 0.997179 12.4627 1.32357 12.1432C1.64996 11.8238 2.04232 11.6641 2.50065 11.6641H5.22982C5.5076 11.6641 5.77148 11.7335 6.02148 11.8724C6.27148 12.0113 6.47287 12.1988 6.62565 12.4349C7.02843 12.9766 7.52496 13.4002 8.11524 13.7057C8.70551 14.0113 9.33399 14.1641 10.0007 14.1641C10.6812 14.1641 11.3166 14.0113 11.9069 13.7057C12.4972 13.4002 12.9868 12.9766 13.3757 12.4349C13.5562 12.1988 13.768 12.0113 14.0111 11.8724C14.2541 11.7335 14.5076 11.6641 14.7715 11.6641H17.5007C17.9729 11.6641 18.3687 11.8238 18.6882 12.1432C19.0076 12.4627 19.1673 12.8585 19.1673 13.3307V16.6641H13.334V14.7682C12.8479 15.1155 12.3236 15.3793 11.7611 15.5599C11.1986 15.7405 10.6118 15.8307 10.0007 15.8307C9.40343 15.8307 8.8201 15.737 8.25065 15.5495C7.68121 15.362 7.15343 15.0946 6.66732 14.7474V16.6641H0.833984ZM3.33398 10.8307C2.63954 10.8307 2.04926 10.5877 1.56315 10.1016C1.07704 9.61545 0.833984 9.02517 0.833984 8.33073C0.833984 7.6224 1.07704 7.02865 1.56315 6.54948C2.04926 6.07031 2.63954 5.83073 3.33398 5.83073C4.04232 5.83073 4.63607 6.07031 5.11524 6.54948C5.5944 7.02865 5.83398 7.6224 5.83398 8.33073C5.83398 9.02517 5.5944 9.61545 5.11524 10.1016C4.63607 10.5877 4.04232 10.8307 3.33398 10.8307ZM16.6673 10.8307C15.9729 10.8307 15.3826 10.5877 14.8965 10.1016C14.4104 9.61545 14.1673 9.02517 14.1673 8.33073C14.1673 7.6224 14.4104 7.02865 14.8965 6.54948C15.3826 6.07031 15.9729 5.83073 16.6673 5.83073C17.3757 5.83073 17.9694 6.07031 18.4486 6.54948C18.9277 7.02865 19.1673 7.6224 19.1673 8.33073C19.1673 9.02517 18.9277 9.61545 18.4486 10.1016C17.9694 10.5877 17.3757 10.8307 16.6673 10.8307Z" fill="#1C1B1F"/>
</g>
</svg>
