<svg width="32" height="32" viewBox="0 0 32 32" fill="none" xmlns="http://www.w3.org/2000/svg">
<mask id="mask0_8173_72078" style="mask-type:alpha" maskUnits="userSpaceOnUse" x="0" y="0" width="32" height="32">
<rect width="32" height="32" fill="#D9D9D9"/>
</mask>
<g mask="url(#mask0_8173_72078)">
<path d="M9.33329 23.9993C8.95551 23.9993 8.63885 23.8716 8.38329 23.616C8.12774 23.3605 7.99996 23.0438 7.99996 22.666V19.9993H25.3333V7.99935H28C28.3777 7.99935 28.6944 8.12713 28.95 8.38268C29.2055 8.63824 29.3333 8.9549 29.3333 9.33268V29.3327L24 23.9993H9.33329ZM2.66663 22.666V3.99935C2.66663 3.62157 2.7944 3.3049 3.04996 3.04935C3.30551 2.79379 3.62218 2.66602 3.99996 2.66602H21.3333C21.7111 2.66602 22.0277 2.79379 22.2833 3.04935C22.5388 3.3049 22.6666 3.62157 22.6666 3.99935V15.9993C22.6666 16.3771 22.5388 16.6938 22.2833 16.9493C22.0277 17.2049 21.7111 17.3327 21.3333 17.3327H7.99996L2.66663 22.666ZM20 14.666V5.33268H5.33329V14.666H20Z" fill="#F9FAFA"/>
</g>
</svg>
