<svg width="23" height="23" viewBox="0 0 23 23" fill="none" xmlns="http://www.w3.org/2000/svg">
<rect width="23" height="22.9999" rx="11.5" fill="#0EA895"/>
<mask id="mask0_2178_27117" style="mask-type:luminance" maskUnits="userSpaceOnUse" x="3" y="3" width="17" height="17">
<path d="M20 3H3V20H20V3Z" fill="white"/>
</mask>
<g mask="url(#mask0_2178_27117)">
<path fill-rule="evenodd" clip-rule="evenodd" d="M2.99854 15.3428C2.99854 13.5232 3.88704 11.9852 5.10094 11.4994C4.40103 11.1855 3.91228 10.4822 3.91228 9.66562C3.91228 8.55717 4.81275 7.65723 5.92173 7.65723C7.02938 7.65723 7.92985 8.55717 7.92985 9.66562C7.92985 10.4822 7.44111 11.1855 6.74119 11.4994C7.67618 11.8735 8.4186 12.8715 8.70946 14.1415C9.00164 12.8715 9.74273 11.8735 10.6791 11.4994C9.97781 11.1855 9.49039 10.4822 9.49039 9.66562C9.49039 8.55717 10.3895 7.65723 11.4985 7.65723C12.6075 7.65723 13.5066 8.55717 13.5066 9.66562C13.5066 10.4822 13.0192 11.1855 12.318 11.4994C13.2543 11.8735 13.9954 12.8715 14.2876 14.1415C14.5784 12.8715 15.3208 11.8735 16.2558 11.4994C15.5559 11.1855 15.0672 10.4822 15.0672 9.66562C15.0672 8.55717 15.9676 7.65723 17.0753 7.65723C18.1843 7.65723 19.0847 8.55717 19.0847 9.66562C19.0847 10.4822 18.596 11.1855 17.8961 11.4994C19.11 11.9852 19.9985 13.523 19.9985 15.3427L2.99854 15.3428Z" fill="white"/>
</g>
</svg>
