<svg width="23" height="23" viewBox="0 0 23 23" fill="none" xmlns="http://www.w3.org/2000/svg">
<rect width="23" height="23" rx="11.5" fill="#0EA895"/>
<path fill-rule="evenodd" clip-rule="evenodd" d="M13.3013 4.32178H7.31239C6.65163 4.32178 6.11597 4.85744 6.11597 5.51821V17.4825C6.11597 18.1432 6.65162 18.6789 7.31239 18.6789H15.6874C16.3482 18.6789 16.8838 18.1432 16.8838 17.4825V7.90428L15.8067 6.82718V16.8842C15.8067 17.2146 15.5389 17.4824 15.2085 17.4824H7.79066C7.46027 17.4824 7.19244 17.2146 7.19244 16.8842V6.11632C7.19244 5.78594 7.46027 5.51811 7.79066 5.51811H14.4976L13.3013 4.32178Z" fill="white"/>
<path fill-rule="evenodd" clip-rule="evenodd" d="M13.2903 4.32129H13.0281C12.8299 4.32129 12.6692 4.48199 12.6692 4.68022V8.16505C12.6692 8.36328 12.8299 8.52397 13.0281 8.52397H16.5129C16.7112 8.52397 16.8719 8.36328 16.8719 8.16505V7.90288L13.2903 4.32129Z" fill="white"/>
<path d="M11.6997 12.9663C12.6123 12.9663 13.3514 12.2271 13.3514 11.3146C13.3514 10.402 12.6123 9.66284 11.6997 9.66284C10.7871 9.66284 10.048 10.402 10.048 11.3146C10.048 12.2271 10.7871 12.9663 11.6997 12.9663ZM11.6997 13.7921C10.5972 13.7921 8.39624 14.3455 8.39624 15.4439V15.8568C8.39624 16.0839 8.58206 16.2697 8.80917 16.2697H14.5902C14.8173 16.2697 15.0031 16.0839 15.0031 15.8568V15.4439C15.0031 14.3455 12.8022 13.7921 11.6997 13.7921Z" fill="white"/>
</svg>
