<svg width="20" height="20" viewBox="0 0 20 20" fill="none" xmlns="http://www.w3.org/2000/svg">
<mask id="mask0_2178_27346" style="mask-type:luminance" maskUnits="userSpaceOnUse" x="0" y="0" width="20" height="20">
<path d="M20 0H0V19.9999H20V0Z" fill="white"/>
</mask>
<g mask="url(#mask0_2178_27346)">
<path fill-rule="evenodd" clip-rule="evenodd" d="M-0.000360536 15.2461C-0.000360536 15.5913 0.279482 15.8711 0.624637 15.8711H1.9001L0.0815121 19.0658C-0.0616124 19.3172 -0.0134857 19.6338 0.197607 19.8315C0.4087 20.029 0.727916 20.056 0.969166 19.8965L7.06243 15.8711H13.1246C13.4698 15.8711 13.7496 15.5913 13.7496 15.2461V6.49611C13.7496 6.15095 13.4698 5.87111 13.1246 5.87111H0.624637C0.279482 5.87111 -0.000360536 6.15095 -0.000360536 6.49611V15.2461ZM1.24964 14.6211V7.12111H12.4996V14.6211H6.87462C6.75212 14.6211 6.63228 14.6571 6.53009 14.7246L2.46073 17.413L3.51822 15.5554C3.62822 15.3618 3.62713 15.1244 3.51525 14.9319C3.40338 14.7396 3.1976 14.6211 2.97494 14.6211H1.24964ZM6.24962 4.77736H13.1246C14.0738 4.77736 14.8433 5.54689 14.8433 6.49611V11.2596L19.0301 14.0255C19.2713 14.1849 19.5905 14.1579 19.8016 13.9603C20.0127 13.7627 20.0608 13.4461 19.9177 13.1947L18.0991 10H19.3746C19.7197 10 19.9996 9.72018 19.9996 9.37503V0.625002C19.9996 0.279844 19.7197 0 19.3746 0H6.87462C6.52946 0 6.24962 0.279844 6.24962 0.625002V4.77736ZM3.74963 10C4.26697 10 4.68712 10.4202 4.68712 10.9375C4.68712 11.4549 4.26697 11.875 3.74963 11.875C3.23229 11.875 2.81213 11.4549 2.81213 10.9375C2.81213 10.4202 3.23229 10 3.74963 10ZM6.87462 10C7.39196 10 7.81212 10.4202 7.81212 10.9375C7.81212 11.4549 7.39196 11.875 6.87462 11.875C6.35728 11.875 5.93712 11.4549 5.93712 10.9375C5.93712 10.4202 6.35728 10 6.87462 10ZM9.99961 10C10.517 10 10.9371 10.4202 10.9371 10.9375C10.9371 11.4549 10.517 11.875 9.99961 11.875C9.48227 11.875 9.06211 11.4549 9.06211 10.9375C9.06211 10.4202 9.48227 10 9.99961 10Z" fill="#97ACAC"/>
</g>
</svg>
