<svg width="30" height="22" viewBox="0 0 30 22" fill="none" xmlns="http://www.w3.org/2000/svg">
<path d="M1 2.61538C1 1.72369 1.72369 1 2.61538 1H11.2308C12.1225 1 12.8462 1.72369 12.8462 2.61538V8C12.8462 8.89169 12.1225 9.61539 11.2308 9.61539H2.61538C2.18696 9.61539 1.77608 9.44519 1.47314 9.14225C1.17019 8.83931 1 8.42843 1 8V2.61538ZM18.2308 4.76923C18.2308 3.87754 18.9545 3.15385 19.8462 3.15385H27.3846C28.2763 3.15385 29 3.87754 29 4.76923V16.6154C29 17.5071 28.2763 18.2308 27.3846 18.2308H19.8462C19.4177 18.2308 19.0068 18.0606 18.7039 17.7576C18.401 17.4547 18.2308 17.0438 18.2308 16.6154V4.76923ZM3.15385 15.5385C3.15385 14.6468 3.87754 13.9231 4.76923 13.9231H12.3077C13.1994 13.9231 13.9231 14.6468 13.9231 15.5385V18.7692C13.9231 19.6609 13.1994 20.3846 12.3077 20.3846H4.76923C4.3408 20.3846 3.92993 20.2144 3.62698 19.9115C3.32404 19.6085 3.15385 19.1977 3.15385 18.7692V15.5385Z" stroke="white" stroke-width="1.5" stroke-linecap="round" stroke-linejoin="round"/>
</svg>
