<svg width="20" height="20" viewBox="0 0 20 20" fill="none" xmlns="http://www.w3.org/2000/svg">
<path d="M8.99204 2.8125H5.867V5.93755H8.99204V2.8125Z" stroke="#97ACAC" stroke-width="1.28271" stroke-miterlimit="1.5" stroke-linecap="round" stroke-linejoin="round"/>
<path d="M8.99186 8.4375H5.86682V11.5625H8.99186V8.4375Z" stroke="#97ACAC" stroke-width="1.28271" stroke-miterlimit="1.5" stroke-linecap="round" stroke-linejoin="round"/>
<path d="M8.99186 14.0627H5.86682V17.1878H8.99186V14.0627Z" stroke="#97ACAC" stroke-width="1.28271" stroke-miterlimit="1.5" stroke-linecap="round" stroke-linejoin="round"/>
<path d="M11.2603 9.69381L13.1391 12.8188L18.7767 7.18115" stroke="black" stroke-width="1.30493" stroke-miterlimit="1.5" stroke-linecap="round" stroke-linejoin="round"/>
<path fill-rule="evenodd" clip-rule="evenodd" d="M10.7246 10.0158L12.6032 13.1408C12.7024 13.3057 12.8719 13.4157 13.0628 13.4391C13.2538 13.4625 13.4449 13.3968 13.5808 13.2607L19.2186 7.62299C19.4625 7.37908 19.4625 6.98299 19.2186 6.73908C18.9747 6.49518 18.5786 6.49518 18.3347 6.73908L13.2625 11.8113L11.7958 9.37175C11.6182 9.07612 11.2338 8.98034 10.9382 9.15815C10.6425 9.33581 10.5469 9.72019 10.7246 10.0158Z" fill="#97ACAC"/>
<path fill-rule="evenodd" clip-rule="evenodd" d="M17.4997 10.2258L16.2497 11.4758V18.6876C16.2497 18.7221 16.2217 18.7501 16.1872 18.7501H3.81225C3.77772 18.7501 3.74975 18.7221 3.74975 18.6876V1.3125C3.74975 1.27797 3.77772 1.25 3.81225 1.25H11.4199V5.36252C11.4199 5.70767 11.6997 5.98752 12.0449 5.98752H16.2497V7.94033L17.4997 6.69033V5.44517C17.4997 5.28314 17.4369 5.12751 17.3244 5.01095L12.6702 0.190938C12.5525 0.0689065 12.3902 0 12.2207 0H3.81225C3.08788 0 2.49976 0.588126 2.49976 1.3125V18.6876C2.49976 19.4119 3.08788 20.0001 3.81225 20.0001H16.1872C16.9116 20.0001 17.4997 19.4119 17.4997 18.6876V10.2258ZM12.6699 4.73751H15.3227L12.6699 1.99016V4.73751Z" fill="#97ACAC"/>
</svg>
