<svg width="20" height="21" viewBox="0 0 20 21" fill="none" xmlns="http://www.w3.org/2000/svg">
<mask id="mask0_2178_27358" style="mask-type:luminance" maskUnits="userSpaceOnUse" x="0" y="0" width="20" height="21">
<path d="M20 0.902832H0V20.9028H20V0.902832Z" fill="white"/>
</mask>
<g mask="url(#mask0_2178_27358)">
<path fill-rule="evenodd" clip-rule="evenodd" d="M-0.000360536 16.149C-0.000360536 16.4941 0.279482 16.774 0.624637 16.774H1.9001L0.0815121 19.9687C-0.0616124 20.2201 -0.0134857 20.5366 0.197607 20.7343C0.4087 20.9318 0.727916 20.9588 0.969166 20.7993L7.06243 16.774H13.1246C13.4698 16.774 13.7496 16.4941 13.7496 16.149V7.39894C13.7496 7.05379 13.4698 6.77394 13.1246 6.77394H0.624637C0.279482 6.77394 -0.000360536 7.05379 -0.000360536 7.39894V16.149ZM1.24964 15.524V8.02394H12.4996V15.524H6.87462C6.75212 15.524 6.63228 15.5599 6.53009 15.6274L2.46073 18.3158L3.51822 16.4582C3.62822 16.2646 3.62713 16.0272 3.51525 15.8347C3.40338 15.6424 3.1976 15.524 2.97494 15.524H1.24964ZM6.24962 5.68019H13.1246C14.0738 5.68019 14.8433 6.44972 14.8433 7.39894V12.1624L19.0301 14.9283C19.2713 15.0877 19.5905 15.0607 19.8016 14.8632C20.0127 14.6655 20.0608 14.349 19.9177 14.0976L18.0991 10.9029H19.3746C19.7197 10.9029 19.9996 10.623 19.9996 10.2779V1.52783C19.9996 1.18268 19.7197 0.902832 19.3746 0.902832H6.87462C6.52946 0.902832 6.24962 1.18268 6.24962 1.52783V5.68019ZM3.74963 10.9029C4.26697 10.9029 4.68712 11.323 4.68712 11.8404C4.68712 12.3577 4.26697 12.7779 3.74963 12.7779C3.23229 12.7779 2.81213 12.3577 2.81213 11.8404C2.81213 11.323 3.23229 10.9029 3.74963 10.9029ZM6.87462 10.9029C7.39196 10.9029 7.81212 11.323 7.81212 11.8404C7.81212 12.3577 7.39196 12.7779 6.87462 12.7779C6.35728 12.7779 5.93712 12.3577 5.93712 11.8404C5.93712 11.323 6.35728 10.9029 6.87462 10.9029ZM9.99961 10.9029C10.517 10.9029 10.9371 11.323 10.9371 11.8404C10.9371 12.3577 10.517 12.7779 9.99961 12.7779C9.48227 12.7779 9.06211 12.3577 9.06211 11.8404C9.06211 11.323 9.48227 10.9029 9.99961 10.9029Z" fill="#0EA895"/>
</g>
</svg>
