<svg width="20" height="20" viewBox="0 0 20 20" fill="none" xmlns="http://www.w3.org/2000/svg">
<path fill-rule="evenodd" clip-rule="evenodd" d="M0.624981 16.5576C0.624981 16.5576 6.29513 16.5382 9.61753 19.4819C9.85408 19.6916 10.2098 19.6916 10.4464 19.4819C13.7679 16.539 19.3744 16.5576 19.3744 16.5576C19.7194 16.5576 19.9994 16.2775 19.9994 15.9326C19.9994 15.5876 19.7194 15.3077 19.3744 15.3077C19.3744 15.3077 13.6979 15.3247 10.0319 18.201C6.36215 15.3256 0.624981 15.3077 0.624981 15.3077C0.279992 15.3077 0 15.5876 0 15.9326C0 16.2775 0.279992 16.5576 0.624981 16.5576ZM9.96751 1.70642C9.66971 1.49346 9.2266 1.24268 8.57849 1.00097C7.21244 0.491294 4.80236 -0.0235373 0.621233 0.00161835C0.277494 0.00364956 0 0.282861 0 0.626603V13.9802C0 14.3189 0.269991 14.5961 0.608731 14.6049C0.608731 14.6049 5.8356 14.7314 9.46034 16.832C9.50752 16.8871 9.56456 16.9345 9.62987 16.971C9.73455 17.0298 9.85174 17.0559 9.96751 17.05C10.0833 17.0559 10.2005 17.0298 10.3052 16.971C10.3705 16.9345 10.4277 16.8871 10.4747 16.832C14.0996 14.7314 19.3264 14.6049 19.3264 14.6049C19.665 14.5961 19.935 14.3189 19.935 13.9802V0.626603C19.935 0.282861 19.6575 0.00364956 19.3138 0.00161835C15.1327 -0.0235373 12.7227 0.491294 11.3565 1.00097C10.7084 1.24268 10.2655 1.49346 9.96751 1.70642ZM9.31035 2.78639V15.3389C6.32262 13.8858 2.67289 13.4914 1.24996 13.3893V1.2519C4.81657 1.27752 6.92151 1.71689 8.14163 2.17203C8.74301 2.3964 9.11473 2.63624 9.31035 2.78639ZM10.6247 15.3389V2.78639C10.8205 2.63624 11.192 2.3964 11.7934 2.17203C13.0135 1.71689 15.1185 1.27752 18.6851 1.2519V13.3893C17.2623 13.4914 13.6124 13.8858 10.6247 15.3389ZM2.99272 10.5881C2.99272 10.5881 5.07906 10.4486 7.42508 11.4762C7.74101 11.6146 8.10991 11.4706 8.24835 11.1545C8.38678 10.8385 8.24256 10.4696 7.92664 10.3314C5.27047 9.16764 2.90491 9.34124 2.90491 9.34124C2.56086 9.3653 2.30118 9.66435 2.3254 10.0084C2.34962 10.3526 2.64851 10.6123 2.99272 10.5881ZM17.0945 9.34124C17.0945 9.34124 14.7289 9.16764 12.0728 10.3314C11.7568 10.4696 11.6126 10.8385 11.751 11.1545C11.8895 11.4706 12.2584 11.6146 12.5743 11.4762C14.9203 10.4486 17.0067 10.5881 17.0067 10.5881C17.3509 10.6123 17.6498 10.3526 17.674 10.0084C17.6982 9.66435 17.4385 9.3653 17.0945 9.34124ZM2.99272 7.46316C2.99272 7.46316 5.07906 7.32363 7.42508 8.35126C7.74101 8.48969 8.10991 8.34563 8.24835 8.02955C8.38678 7.71362 8.24256 7.34472 7.92664 7.20644C5.27047 6.04272 2.90491 6.21631 2.90491 6.21631C2.56086 6.24037 2.30118 6.53943 2.3254 6.88348C2.34962 7.22769 2.64851 7.48737 2.99272 7.46316ZM17.0945 6.21631C17.0945 6.21631 14.7289 6.04272 12.0728 7.20644C11.7568 7.34472 11.6126 7.71362 11.751 8.02955C11.8895 8.34563 12.2584 8.48969 12.5743 8.35126C14.9203 7.32363 17.0067 7.46316 17.0067 7.46316C17.3509 7.48737 17.6498 7.22769 17.674 6.88348C17.6982 6.53943 17.4385 6.24037 17.0945 6.21631ZM2.99272 4.33823C2.99272 4.33823 5.07906 4.1987 7.42508 5.22634C7.74101 5.36477 8.10991 5.22071 8.24835 4.90462C8.38678 4.58869 8.24256 4.2198 7.92664 4.08152C5.27047 2.9178 2.90491 3.09139 2.90491 3.09139C2.56086 3.11545 2.30118 3.4145 2.3254 3.75856C2.34962 4.10277 2.64851 4.36245 2.99272 4.33823ZM17.0945 3.09139C17.0945 3.09139 14.7289 2.9178 12.0728 4.08152C11.7568 4.2198 11.6126 4.58869 11.751 4.90462C11.8895 5.22071 12.2584 5.36477 12.5743 5.22634C14.9203 4.1987 17.0067 4.33823 17.0067 4.33823C17.3509 4.36245 17.6498 4.10277 17.674 3.75856C17.6982 3.4145 17.4385 3.11545 17.0945 3.09139Z" fill="#97ACAC"/>
</svg>
