<svg width="20" height="20" viewBox="0 0 20 20" fill="none" xmlns="http://www.w3.org/2000/svg">
<mask id="mask0_8153_65420" style="mask-type:alpha" maskUnits="userSpaceOnUse" x="0" y="0" width="20" height="20">
<rect width="20" height="20" fill="#D9D9D9"/>
</mask>
<g mask="url(#mask0_8153_65420)">
<path d="M0.833496 16.6693V14.3359C0.833496 13.8637 0.955024 13.4297 1.19808 13.0339C1.44114 12.638 1.76405 12.3359 2.16683 12.1276C3.02794 11.697 3.90294 11.3741 4.79183 11.1589C5.68072 10.9436 6.5835 10.8359 7.50016 10.8359C8.41683 10.8359 9.31961 10.9436 10.2085 11.1589C11.0974 11.3741 11.9724 11.697 12.8335 12.1276C13.2363 12.3359 13.5592 12.638 13.8022 13.0339C14.0453 13.4297 14.1668 13.8637 14.1668 14.3359V16.6693H0.833496ZM15.8335 16.6693V14.1693C15.8335 13.5582 15.6634 12.9714 15.3231 12.4089C14.9828 11.8464 14.5002 11.3637 13.8752 10.9609C14.5835 11.0443 15.2502 11.1866 15.8752 11.388C16.5002 11.5894 17.0835 11.8359 17.6252 12.1276C18.1252 12.4054 18.5071 12.7144 18.771 13.0547C19.0349 13.395 19.1668 13.7665 19.1668 14.1693V16.6693H15.8335ZM7.50016 10.0026C6.5835 10.0026 5.79877 9.67622 5.146 9.02344C4.49322 8.37066 4.16683 7.58594 4.16683 6.66927C4.16683 5.7526 4.49322 4.96788 5.146 4.3151C5.79877 3.66233 6.5835 3.33594 7.50016 3.33594C8.41683 3.33594 9.20155 3.66233 9.85433 4.3151C10.5071 4.96788 10.8335 5.7526 10.8335 6.66927C10.8335 7.58594 10.5071 8.37066 9.85433 9.02344C9.20155 9.67622 8.41683 10.0026 7.50016 10.0026ZM15.8335 6.66927C15.8335 7.58594 15.5071 8.37066 14.8543 9.02344C14.2016 9.67622 13.4168 10.0026 12.5002 10.0026C12.3474 10.0026 12.1529 9.98524 11.9168 9.95052C11.6807 9.9158 11.4863 9.8776 11.3335 9.83594C11.7085 9.39149 11.9967 8.89844 12.1981 8.35677C12.3995 7.8151 12.5002 7.2526 12.5002 6.66927C12.5002 6.08594 12.3995 5.52344 12.1981 4.98177C11.9967 4.4401 11.7085 3.94705 11.3335 3.5026C11.5279 3.43316 11.7224 3.38802 11.9168 3.36719C12.1113 3.34635 12.3057 3.33594 12.5002 3.33594C13.4168 3.33594 14.2016 3.66233 14.8543 4.3151C15.5071 4.96788 15.8335 5.7526 15.8335 6.66927ZM2.50016 15.0026H12.5002V14.3359C12.5002 14.1832 12.462 14.0443 12.3856 13.9193C12.3092 13.7943 12.2085 13.697 12.0835 13.6276C11.3335 13.2526 10.5766 12.9714 9.81266 12.7839C9.04878 12.5964 8.27794 12.5026 7.50016 12.5026C6.72239 12.5026 5.95155 12.5964 5.18766 12.7839C4.42377 12.9714 3.66683 13.2526 2.91683 13.6276C2.79183 13.697 2.69114 13.7943 2.61475 13.9193C2.53836 14.0443 2.50016 14.1832 2.50016 14.3359V15.0026ZM7.50016 8.33594C7.9585 8.33594 8.35086 8.17274 8.67725 7.84635C9.00364 7.51996 9.16683 7.1276 9.16683 6.66927C9.16683 6.21094 9.00364 5.81858 8.67725 5.49219C8.35086 5.1658 7.9585 5.0026 7.50016 5.0026C7.04183 5.0026 6.64947 5.1658 6.32308 5.49219C5.99669 5.81858 5.8335 6.21094 5.8335 6.66927C5.8335 7.1276 5.99669 7.51996 6.32308 7.84635C6.64947 8.17274 7.04183 8.33594 7.50016 8.33594Z" fill="#EFF0F0"/>
</g>
</svg>
