<svg width="23" height="23" viewBox="0 0 23 23" fill="none" xmlns="http://www.w3.org/2000/svg">
<circle cx="11.5" cy="11.5" r="11.5" fill="#0EA895"/>
<mask id="mask0_7963_58757" style="mask-type:alpha" maskUnits="userSpaceOnUse" x="1" y="1" width="21" height="21">
<circle cx="11.5" cy="11.5" r="10.5" fill="#0EA895"/>
</mask>
<g mask="url(#mask0_7963_58757)">
<path fill-rule="evenodd" clip-rule="evenodd" d="M9.41441 16.3747C9.41441 16.3751 9.41441 16.3754 9.41441 16.3759L2.82611 16.376C2.82611 14.3244 3.82782 12.5906 5.19639 12.0429C4.4073 11.689 3.85628 10.896 3.85628 9.97547C3.85628 8.72579 4.87148 7.71118 6.12176 7.71118C7.37054 7.71118 8.38574 8.72579 8.38574 9.97547C8.38574 10.896 7.83472 11.689 7.04562 12.0429C7.9021 12.3855 8.61484 13.1924 9.0281 14.2507L9.76928 13.01C9.88607 12.8144 10.1391 12.7504 10.3353 12.8672L11.0435 13.2903C11.2397 13.4071 11.304 13.6607 11.1873 13.8565L9.80371 16.1748C9.71986 16.3145 9.56714 16.3871 9.41441 16.3747Z" fill="white"/>
<path fill-rule="evenodd" clip-rule="evenodd" d="M12.4494 15.5166C12.0249 15.3007 11.7343 14.86 11.7343 14.3519C11.7343 13.6311 12.3193 13.0459 13.0403 13.0459C13.7614 13.0459 14.3463 13.6311 14.3463 14.3519C14.3463 14.86 14.0557 15.3007 13.6313 15.5166C14.3915 15.8574 14.9411 16.8372 14.9411 17.9913L11.1395 17.9914C11.1395 16.8372 11.6891 15.8574 12.4494 15.5166Z" fill="white"/>
<path fill-rule="evenodd" clip-rule="evenodd" d="M15.8648 15.5166C15.4404 15.3007 15.1498 14.86 15.1498 14.3519C15.1498 13.6311 15.7348 13.0459 16.4558 13.0459C17.1768 13.0459 17.7618 13.6311 17.7618 14.3519C17.7618 14.86 17.4712 15.3007 17.0468 15.5166C17.807 15.8574 18.3566 16.8372 18.3566 17.9913L14.555 17.9914C14.555 16.8372 15.1046 15.8574 15.8648 15.5166Z" fill="white"/>
<path fill-rule="evenodd" clip-rule="evenodd" d="M12.2506 10.3765C12.1078 10.2933 11.9242 10.3422 11.8412 10.4845L10.3013 13.126C10.2184 13.2683 10.2662 13.4522 10.4091 13.5355C10.5519 13.6188 10.7359 13.57 10.8188 13.4277L12.3587 10.7862C12.4417 10.6439 12.3934 10.4598 12.2506 10.3765Z" fill="white"/>
<path fill-rule="evenodd" clip-rule="evenodd" d="M10.097 12.2887H9.39267C9.14442 12.2887 8.94403 12.0876 8.94403 11.8395V5.10145C8.94403 4.85335 9.14442 4.6521 9.39267 4.6521H18.3774C18.6257 4.6521 18.8261 4.85335 18.8261 5.10145V11.8395C18.8261 12.0876 18.6257 12.2887 18.3774 12.2887H12.1757L12.7006 11.3903H17.9273V5.55064H9.84281V11.3903H10.6205L10.097 12.2887Z" fill="white"/>
</g>
</svg>
