<svg width="23" height="23" viewBox="0 0 23 23" fill="none" xmlns="http://www.w3.org/2000/svg">
<rect width="23" height="22.9999" rx="11.5" fill="#0EA895"/>
<mask id="mask0_7806_58724" style="mask-type:alpha" maskUnits="userSpaceOnUse" x="0" y="0" width="23" height="23">
<circle cx="11.5" cy="11.5" r="11.5" fill="#E5323F"/>
</mask>
<g mask="url(#mask0_7806_58724)">
<path fill-rule="evenodd" clip-rule="evenodd" d="M4.41077 11.8221C4.41077 10.2069 5.19946 8.84173 6.27698 8.41048C5.6557 8.1319 5.22186 7.50755 5.22186 6.78275C5.22186 5.79883 6.02116 5 7.00556 5C7.98877 5 8.78808 5.79883 8.78808 6.78275C8.78808 7.50755 8.35424 8.1319 7.73295 8.41048C8.56291 8.74258 9.22192 9.62842 9.4801 10.7558C9.73946 9.62842 10.3973 8.74258 11.2284 8.41048C10.606 8.1319 10.1733 7.50755 10.1733 6.78275C10.1733 5.79883 10.9714 5 11.9558 5C12.9402 5 13.7383 5.79883 13.7383 6.78275C13.7383 7.50755 13.3057 8.1319 12.6832 8.41048C13.5143 8.74258 14.1722 9.62842 14.4315 10.7558C14.6897 9.62842 15.3487 8.74258 16.1787 8.41048C15.5574 8.1319 15.1236 7.50755 15.1236 6.78275C15.1236 5.79883 15.9229 5 16.9061 5C17.8905 5 18.6898 5.79883 18.6898 6.78275C18.6898 7.50755 18.2559 8.1319 17.6347 8.41048C18.7122 8.84173 19.5009 10.2068 19.5009 11.822L4.41077 11.8221Z" fill="white"/>
<path fill-rule="evenodd" clip-rule="evenodd" d="M5.32286 18.5308L5.44275 18.6677C5.48372 18.7139 5.47764 18.7838 5.43211 18.8239L0.674607 22.9725C0.629081 23.0128 0.559269 23.0079 0.518295 22.9619L-2.97206 18.9583C-3.01304 18.9123 -3.00847 18.8424 -2.96143 18.8022L1.79608 14.6535C1.8416 14.6134 1.91141 14.6181 1.95239 14.6643L2.11932 14.8567L2.55485 14.4775C2.57913 14.4564 2.61556 14.4588 2.6368 14.4831L2.73999 14.6014C3.35459 13.583 4.87215 13.6744 4.87215 13.6744H14.2733C15.4935 13.6744 15.8926 14.7796 15.9715 15.0508C16.5466 15.0959 16.8866 15.125 16.8866 15.125C16.8866 15.125 18.7061 13.905 19.9566 12.8636C20.8049 12.1568 21.723 13.1461 21.0871 13.7823C20.4513 14.4183 18.5437 16.7504 18.5437 16.7504C18.5437 16.7504 13.809 19.0826 11.5463 19.0826C8.44749 19.0826 6.59607 17.9904 5.61421 17.8977L5.76445 18.0692C5.78569 18.0935 5.78265 18.1305 5.75837 18.1516L5.32286 18.5308Z" fill="white"/>
</g>
</svg>
