<svg width="23" height="23" viewBox="0 0 23 23" fill="none" xmlns="http://www.w3.org/2000/svg">
<rect width="23" height="23" rx="11.5" fill="#0EA895"/>
<mask id="mask0_2178_27105" style="mask-type:luminance" maskUnits="userSpaceOnUse" x="3" y="3" width="17" height="17">
<path d="M20 3H3V20H20V3Z" fill="white"/>
</mask>
<g mask="url(#mask0_2178_27105)">
<path fill-rule="evenodd" clip-rule="evenodd" d="M10.0562 11.4952C9.02024 10.9683 8.31102 9.89267 8.31102 8.6526C8.31102 6.89336 9.73875 5.46509 11.4985 5.46509C13.2583 5.46509 14.686 6.89336 14.686 8.6526C14.686 9.89267 13.9768 10.9683 12.9408 11.4952C14.7962 12.3269 16.1376 14.7182 16.1376 17.535L6.85938 17.5351C6.85938 14.7183 8.20079 12.3269 10.0562 11.4952Z" fill="white"/>
<path fill-rule="evenodd" clip-rule="evenodd" d="M15.3673 12.9623C15.6342 12.6993 15.9331 12.4963 16.2558 12.3673C15.5559 12.0535 15.0671 11.3501 15.0671 10.5335C15.0671 9.42509 15.9676 8.52515 17.0753 8.52515C18.1842 8.52515 19.0847 9.42509 19.0847 10.5335C19.0847 11.3501 18.596 12.0535 17.896 12.3673C19.1099 12.8531 19.9985 14.391 19.9985 16.2106L16.5732 16.2108C16.3926 14.9752 15.9649 13.8604 15.3673 12.9623Z" fill="white"/>
<path fill-rule="evenodd" clip-rule="evenodd" d="M6.4245 16.2108H2.99927C2.99927 14.3911 3.88777 12.8531 5.10168 12.3673C4.40176 12.0535 3.91302 11.3501 3.91302 10.5335C3.91302 9.42509 4.81348 8.52515 5.92246 8.52515C7.03012 8.52515 7.93058 9.42509 7.93058 10.5335C7.93058 11.3501 7.44184 12.0535 6.74192 12.3673C7.06465 12.4963 7.36347 12.6993 7.63042 12.9623C7.03277 13.8605 6.60512 14.9753 6.4245 16.2108Z" fill="white"/>
</g>
</svg>
