<svg width="27" height="17" viewBox="0 0 27 17" fill="none" xmlns="http://www.w3.org/2000/svg">
<path fill-rule="evenodd" clip-rule="evenodd" d="M3.90784 6.29931V10.5455C3.90784 11.3479 4.55437 11.9948 5.3444 11.9948H6.95219C7.74242 11.9948 8.38895 11.3479 8.38895 10.5455V6.29931C8.38895 5.95025 8.10538 5.6665 7.75608 5.6665C7.40699 5.6665 7.12342 5.95025 7.12342 6.29931V10.5455C7.12342 10.6441 7.04946 10.7292 6.95219 10.7292H5.3444C5.24732 10.7292 5.17337 10.6441 5.17337 10.5455V6.29931C5.17337 5.95025 4.88979 5.6665 4.5405 5.6665C4.19141 5.6665 3.90784 5.95025 3.90784 6.29931Z" fill="#12B7A3"/>
<path d="M10.1586 8.43596C10.1586 8.88648 10.5189 9.25249 10.9625 9.25249H12.5703C13.014 9.25249 13.3742 8.88648 13.3742 8.43596V7.11584C13.3742 6.66512 13.014 6.29932 12.5703 6.29932H10.9625C10.5189 6.29932 10.1586 6.66512 10.1586 7.11584V11.3618" stroke="#12B7A3" stroke-width="1.19041" stroke-miterlimit="1.5" stroke-linecap="round" stroke-linejoin="round"/>
<path fill-rule="evenodd" clip-rule="evenodd" d="M18.67 8.28188L15.6579 11.2956C15.3267 11.6248 15.3267 12.1596 15.6579 12.4888C15.9869 12.8181 16.5206 12.8181 16.8497 12.4888L19.864 9.47516L21.4924 11.1042C21.6527 11.2648 21.889 11.327 22.1062 11.2673C22.3256 11.2076 22.4964 11.035 22.5534 10.8152L24.108 4.80942C24.1628 4.59258 24.1017 4.36202 23.9435 4.2034C23.7832 4.04498 23.5532 3.98212 23.336 4.03823L17.3306 5.59263C17.1112 5.64959 16.9383 5.81981 16.8792 6.03898C16.818 6.25793 16.8813 6.49228 17.0416 6.65281L18.67 8.28188Z" fill="#12B7A3"/>
<path fill-rule="evenodd" clip-rule="evenodd" d="M27.0005 2.35034C27.0005 1.4561 26.2746 0.730469 25.3795 0.730469H1.621C0.725865 0.730469 0 1.4561 0 2.35034V15.3102C0 16.2045 0.725865 16.9304 1.621 16.9304H25.3795C26.2746 16.9304 27.0005 16.2045 27.0005 15.3102V2.35034ZM25.7343 2.35034V15.3102C25.7343 15.5061 25.5748 15.6646 25.3795 15.6646H1.621C1.4257 15.6646 1.26621 15.5061 1.26621 15.3102V2.35034C1.26621 2.15482 1.4257 1.99595 1.621 1.99595H25.3795C25.5748 1.99595 25.7343 2.15482 25.7343 2.35034Z" fill="#12B7A3"/>
</svg>
