<svg width="164" height="84" viewBox="0 0 164 84" fill="none" xmlns="http://www.w3.org/2000/svg">
<g clip-path="url(#clip0_819_3678)">
<path d="M94.3046 31.1765L91.0146 32.7765L91.0546 36.3965L94.2646 34.8265L94.3046 31.1765Z" fill="white"/>
<path d="M78.8955 54.2666C78.8955 54.9366 79.6155 55.4766 80.5055 55.4766C81.3955 55.4766 82.1155 54.9466 82.1255 54.2866V43.7466L87.3355 41.2366L87.3155 37.9666L80.0055 41.5166C79.3755 41.7766 78.9055 42.3266 78.9055 43.0466" fill="white"/>
<path d="M94.2749 38.6965L91.0849 40.2665L91.0449 40.2865V54.2165C91.0449 54.2165 91.0449 54.2165 91.0449 54.2365C91.0449 54.9065 91.7649 55.4865 92.6549 55.4865C93.5449 55.4865 94.2649 54.9565 94.2749 54.2965" fill="white"/>
<path d="M134.015 54.2265V40.5365C134.015 40.4565 134.015 40.3765 134.015 40.2965C134.015 39.4065 133.315 38.6965 132.425 38.6965C132.115 38.6965 131.855 38.8165 131.595 38.9365L123.955 42.5165V30.3065L120.755 31.8765H120.725V54.2165C120.725 54.2165 120.725 54.2765 120.725 54.3065C120.725 54.9765 121.445 55.5165 122.335 55.5165C123.225 55.5165 123.955 54.9765 123.955 54.3065C123.955 54.2765 123.955 54.2565 123.955 54.2165V45.7465L130.795 42.5365V54.0965C130.795 54.0965 130.795 54.1965 130.795 54.2365C130.795 54.9065 131.505 55.4965 132.405 55.4965C133.305 55.4965 134.025 54.8965 134.025 54.2265" fill="white"/>
<path d="M153.295 51.0865L149.795 49.4865L150.086 49.6465L149.785 49.4865L145.905 51.4565V40.5565L150.575 38.6165L153.175 37.5865L149.545 35.8565V35.8865V35.8665L145.905 37.3765V31.0365L142.675 32.5965V38.7165L138.295 40.5365L138.276 40.5465C137.536 40.8465 137.175 41.6865 137.465 42.4365C137.755 43.1865 138.606 43.5665 139.366 43.2665C139.376 43.2665 139.395 43.2665 139.405 43.2565L142.685 41.8965V53.7865C142.685 53.7865 142.685 53.7965 142.685 53.8065C142.685 53.8165 142.685 53.8165 142.685 53.8265V53.9765C142.765 54.7965 143.455 55.4165 144.295 55.4165C144.425 55.4165 144.555 55.3965 144.675 55.3665L144.726 55.3465C144.936 55.2865 145.095 55.2465 145.315 55.1365" fill="white"/>
<path d="M58.2051 53.8566C58.2051 53.8566 58.2051 53.8666 58.2051 53.8766V53.8566ZM58.2051 53.9466C58.2551 54.7966 58.9451 55.4766 59.8151 55.4766C60.1851 55.4766 60.4851 55.2966 60.7951 55.1366L73.5851 48.9866C74.6051 48.4966 75.3551 47.7566 75.3651 46.6266C75.3751 45.5166 74.6751 44.6466 73.6851 44.2566L73.6451 44.2366L68.9651 42.0466L71.8651 40.6266C71.9251 40.5966 71.9851 40.5666 72.0451 40.5366L72.3351 40.3966H72.3551C73.0651 39.9466 73.3751 39.2066 73.3751 38.3766C73.3751 37.3966 72.6951 36.5166 71.9951 36.1766H71.9751L60.7751 30.8466C60.4751 30.6866 60.0851 30.5366 59.8151 30.5266C58.9551 30.4966 58.2551 31.1966 58.2151 32.0466V32.1266C58.2151 32.1266 58.2151 32.1366 58.2151 32.1466M64.7451 43.0666L72.0351 46.4866L61.4451 51.5766V34.4066L69.7951 38.3766L64.7351 40.8466L62.4851 41.9566" fill="white"/>
<path d="M100.985 43.1665C100.315 43.4965 99.865 44.1965 99.865 44.9865C99.865 45.7265 100.255 46.3765 100.855 46.7265L100.935 46.7665C101.015 46.8065 101.115 46.8465 101.195 46.8965L107.395 49.7765L110.675 48.0465L108.635 47.1165L104.055 44.9765L111.345 41.6265V58.1565L102.015 53.8365L98.335 55.5365C98.335 55.5365 112.505 61.9265 112.595 61.9665L112.685 61.9965H112.695C112.815 62.0365 112.945 62.0565 113.085 62.0565C113.905 62.0565 114.565 61.3765 114.565 60.5465C114.565 60.5265 114.565 60.5065 114.565 60.4865V39.4765C114.565 39.4765 114.565 39.4565 114.565 39.4365C114.565 38.5465 113.845 37.7765 112.955 37.8265C112.765 37.8365 112.605 37.8365 112.415 37.9065" fill="white"/>
<path d="M46.6052 31.4765L28.3252 20.9165L10.0352 31.4765V52.5865L28.3252 63.1465L46.6052 52.5865V31.4765Z" fill="#00AB97"/>
<path d="M28.3249 20.9165L28.2549 42.0365L46.6049 31.4765L28.3249 20.9165Z" fill="#7AC9C6"/>
</g>
<defs>
<clipPath id="clip0_819_3678">
<rect width="143.26" height="42.23" fill="white" transform="translate(10.0352 20.9165)"/>
</clipPath>
</defs>
</svg>
